<?xml version="1.0" encoding="UTF-8"?>
<svg id="Layer_1" xmlns="http://www.w3.org/2000/svg" version="1.1" viewBox="0 0 2120.6 433">
  <!-- Generator: Adobe Illustrator 29.2.1, SVG Export Plug-In . SVG Version: 2.1.0 Build 116)  -->
  <defs>
    <style>
      .st0 {
        fill: #dfebf8;
      }
    </style>
  </defs>
  <path class="st0" d="M0,433c0-16.2,0-32.5,0-48.8,3.2.8,5-1.7,6.3-2.2,3.6-1.4,9-2.6,12.1-4.3,3.4-3.3,8.4-6.8,7.7,1.2,5.3,1.7,10.6-.2,15.8-.6,5-.7,11.3,1.6,14.7-3.1,5.6,1.5,23.3,3.8,28.4-.7l2,1.5c1.2-2.7,5.8-7.2,7.7-3,4.3-3.5,3.3.1,5,.6,6.9.8,19.8-2.1,26.1-5.7,5.2-1.1,8.8-.9,13.1-4.8.8-4.3,6-4.1,10.1-6.6,6.8-3.7,6.5-15.6,16.1-11.2,2-8.3,9.4-15.8,9-24.8,4.4,2.2,3.3,7.1,4.1,10.7.4,1.2,2.9,6.8,3.2,7.8-.7,14.4,1.2,4.5,4.8,17.1,5,1.5,9.2,3.5,13.7,5.2,4.6,6.1,12.8,5.9,19.6,3,1-.4,1-1.7,1.5-1.8,10.5,2.5,17.4-8,28-9.4,5.9,1.5,13.1-5.2,17.9-6.8,3.2.4,5.9-.1,8.7-2.5,3.5-.4,5.8-.4,6.1-4,2.7-1,.9-3.4,3.2-5.8,1.8,1,2.9,2.5,2.4,4.5,5.7.5,3.2-.3,4.1-2.4,2.3-9.6,6.4-17.9,6.5-27.6,2.6-.3.9,2.9,4.1,3-.9-3.8,2.1-1.9,1.8-5.9,3.5-.4,6.5-4.2,6.4-7.6,4.8,2.1,13.5-2,13.8,4.5,7.9-2.7,5.4,6.3,6.5,10.8,3.1,10.5,5.6,23.1,9.7,33.4-.9,3.9,6,5,9.2,4.5,7-1.8,4.3-5.9,5.5-10.6,14.1-39.8,17.5-87.3,27.7-128.6,1.9-6.9,2.4-13.5,2.5-20.5,2.9-.6,1.2,3,1.6,4.7,1.8,6.8,2.4,14.9,4.1,21.8,4.1,1.1-.3,10.1,5.7,9.1.4-10.7,0-23,4.9-32.6.9,4.8-2.1,11.1,1.7,14.6,2.1,9.3-.8,21.4,4.1,29.3.4,2.8-.7,7.1,0,9.7,4.6,2.4-1.4,10.2,5.7,11.5,0,0,0,4.8,0,4.8l1.3-3.8,10.9-1.4c-.6-7.5,3.1-14.7,2.5-22,0-.3,4-2.9,2.4-5.8,7.1,4,2,15.4,4.2,22.1,1,6.7,4.9,11.8,4,18.5,2.3,2.1,14.4-6.3,15.7-8.4,4.3-7.2,3.6-14.3,7.9-21.3.7-1.2-.1-14,2.4-8.9,3.9,5.5-1.6,15.4,5.7,17.6.6-1,3-22,5.7-21l.8,7.5,1.6-.8v6.8s1.6-.8,1.6-.8c-1.3,4.7,2.2,5.9,4.1,8.8s1.6,4.5,2.5,7.3,2.3,3.3,1.6,5.7c3.5-2.8,1.8-7.8,4.1-11.3,7.9,4.2-.6,10.8,12.6,18,.2,3.7,4.1,5.2,4.6,8.8,0,0,12.1,2.4,12.1,2.4-1.3-2.8,1.5-4,1.6-4.3,3.3-8.8,0-23.4,5.7-30.8,1.9-5.3-1.6-13.7,4.5-17.5,3.8,2.4,0,5.7,3.6,7.3,2.3,12,4.3,25.7,6.5,37.8l1.6-.8c.9,1.3.4,8.9.8,10.8,3,5.9,3.6,15.1,4.1,21.7,6.9,5.4,1.5,7.6,5.6,10.1,1,10.3,2.6,22.4,11.1,30.2,1.1,1,3.7.5,3.6,3.8l4.8-.7v3.7c1.5.2.5-1.5.8-2.5,2.7-1,1.3-3.2,1.6-5.3,3.3-1.1.3-3.3,2.4-3.5,0,.4,2,19.9,3.3,10.5,5.3.5,3.1,2.6,6.5,4.3.2,1.9-.7,3.7,1.6,4.5-1.4,10.2,6.6,12.3,14.6,13-.5-3.4,1.6-1.2,3-3.7,1.1,0,4.1,1.5,5.1.6.6-3.3,3.3-4.9,2.5-8.9,1.9,0,3-.2,4.1,1.5,1.5-3.3,1-7.8,1.7-10.7,2.3-1,2-3.7,2.4-5.8,4.6,2.4,3.1,7,4.2,10.4,4.8.5,2.8,4,4.1,7.5.9,1.1,3.3.2,3.8.4s1.4,2.7,3.4,2c5-15,4.1-33,12.2-46.3.5-1.9,0-4.9.8-7,3-.6.9,2.6,1.8,4.3,7,3.6,5.9,11.5,6.3,17.8,2.2,6.3,3.3,13.3,4.1,19.9,3.5,1.1,3.4-1.7,4.2-2.1,5.2,1.6,2.9-2.5,10.7-5.3,3.8-2.7.8-9.2,4.6-11.1.5-1.8-.3-4.3,0-6.2,3.2-.8.9,4.5,1.6,5.2,3.8,0,1.9-4,2.5-6.2,3.1-1.3,1.5-5.9,2.5-8.2,5.3-4.2,6.7-10.5,8.2-16.2,0,0,5.5-.2,5.5-.2,4.4-16.7,10.9-35.7,12.3-53.3,6-.3,1.9,5.2,5.7,6.5,2.7,11.5,2,26.2,8.1,36,1,3.3-1.7,9.8,4,8.4l.9-5.1c.4-.4,6.1,1.3,7.5-2.5,4.8-16,4.4-33.4,10.4-49,2.8-7.7.5-19.7,5.7-25.5.3-1-.4-4,.4-4-.2,1.6,2,2.6,2,2.8.4,1.8-.4,4,0,5.7,4.8,4.4,1.8,14.2,4.1,20.3,5.6,18.4,9.4,38.5,15.2,56.7-.4,13.2,22.1,7.3,27.1,19.6,1.8-.4,1.7-.7,1.6-2.2,4.2.7,3.3,3.6,6.6,4.2-.7,3.8,1.6,12.4,2.8,16.1,1.8-1,.8-2.9,1.3-3.9,3.8-6-.6-12.9,4-17.6,1-3.6-1.8-9.1,1.7-11.8,3.6-18.2,1.6-38.9,8.1-55.6.3-2,.2-14.1.8-14.7,6.5,1.3,3.3-4,4.1-7.7,3.1-1,0-3.5,4-4.3,0,0,1.6,3,1.6,3v-4.5s5.7,0,5.7,0v4.5s.8-3,.8-3l3.2,1.3.8,11.5c9.9-3.4,6.5,18,8.1,23.3l1.6-.8c4.2,31.9,11,63.3,17.9,95-1.8,11.6,12.7,19.1,24,16,9.6-2.9,4.5-11.7,10.2-18.5-.2-8.2,5-1.6,5-14.7,2.9-3.6,8.9-9.5,8.3-14.6.2-.5,6.3-5.9,7-7.5l.9-12.2c2.3-.4,1.6.8,1.6,2.3,2.2,0,7.2-1.6,6.6-4.7.4-.7,1.4-.6,1.5-1.1,1.8-5.1,2.4-6,2.6-9.9,3-2.6,4.3,1.3,4.2,4.2,3.9,1.3,3,5.6,4,8.3.2.3,5.6,3.1,5.9,3.2,2.4.6.2-2.4,2-2.2-1.5,3,1.5,4.7,1.6,5,.4,1.7-.4,4,0,5.7,2.3.9,1.5,2.7,2.2,4.9,8.7,6.4.3,4.4,7.5,9.8,1,4.4-.4,4.9,4.2,6.6,1.2,3.8.2,4.4,2.4,8.7.1.4,2.5,1.1,1.7,3.5,3.5,0,1.9,1.8,2.3,4.1,4.4,4,3.3,11.2,4.2,15.4,2.8,0,3.1,2.2,4.4,3s3.9,2.2,4.2,2.3c10.1,0,18.7.9,28.5,2.1,8.6-2.9,5.2,4.2,8.6,4.6,7.2-1.5,3.6-2.4,4.7-6.9,1.7-6.9,4-15,5.7-21.3-.7-11.4,3.1,0,2.5-11,2.2-.9,1.5-2.7,2.2-4.9.7-1.7,6.6-4.2,4.3-9.2l4.1,2.2c.7-10,2.3-23.3,7.3-32.1,5.1-16.8,4.1-35,10.6-51.7,1-2.8-1.9-7.5,1.6-9.1,0-2.2,1.8-4.7,3.9-5.6.7-1.8-.5-6.2,2.7-5.8-1.1,2.5,1.3,2.9,1.6,3.6.4,4.5.3,4,4.2,5.9,3,30.4,12.2,60.3,16.3,90.3,4.2-2.1,7.5-33.4,8.2-17,4.4,1.5-1.9,9.8,5.7,7.3l.8,10.5,1.6-.8c-.5,7.9,2.9,15.3,2.5,23.3l1.6-.8v3c2.2.2,1.3,0,1.6-1.1,1-3.7,1.2-5.8,2.7-9.1,3.1-5.9.6-15.7,6.2-21.3l1.6,11.3c1.5,1.7,2.3-9.9,2.5-10.8,1.3-3.7,2.3-10.6,6.1-12.4,1.7-.3,1.7,2.4,1.9,3.4,1,10,4,24.1,5.9,33.2,6.9,1.8,3.7,4.4,13,4.3,1.8-4.2-.2-9,4.8-13.8,1.2-3.8-1.2-7,4.1-6.2l1.6,16.2c4.6,3.1,3.2-8.6,3.4-10.5.8-12.2,5.4-22.2,5.6-33.5h2.4c-.8,4.5,2.7,7.4,1.6,12l1.6-.8c-1.1,4.7,3.9,6.4,2.5,11.3l1.6-.8v5.3s1.6-.8,1.6-.8l10.7,61.5s19.1,1.7,19.1,1.7c.9,0,6.7-5.1,6.9-5.8.9-18.4,6.7-37.9,10.6-56.3,2.6-8.2,1.2-20.1,6.5-28-1.1,5.1,2.1,8.7,1.6,13.5,4-2.7,1.5-9.3,2.5-13,3-.5,1-6.9,1.6-8,0,0,2.4,0,2.4,0-1.2,14.2,8.6,28.1,9.8,42,7.5-4.8,2.8-14.9,9.7-20.1,1.5-2.2-1-8.8,2.5-9.2,3,3.4,1.5,9,2.5,13s6.8,10.5,7.3,12.3-.4,6.1,1,6.9c8.4,1.1,21.6,13.6,21.9-1.8.2-1.2-.5-1.3,1.6-1.1.2,3.7-1.1,3.5,1.7,6.3.6,4.3.5,9.6.8,13.9l1.6-.8c0,2.9-1,5.1,2.9,5.3s2.1-2.8,3.6-3v5.3s1.6-.8,1.6-.8v3.8s1.6-.8,1.6-.8l.9,10c4.7,1.3,2,8.9,6,8.1s1.5-3.9,2.1-6.3c5.2-6.1,2.9-17.8,5.7-25.5,3.7-2.6,2.4-9,4.1-12.7.1-.5,3-1.6,2.4-3.5,4.5.5,7.4,10.4,12.2,8.3-.4,4.2.9,3.6,3.2,1,.6-2.7,0-7.3.9-10.2,2.5-8.7,8.2-19.6,7.3-28.3,0,0,4.1.7,4.1.7.7-3.7-.5-11.3,4.1-14.8.3-1.2-.8-3.9.8-4-1.4,2.8,1.6,4,1.6,4.3,1.8,7.4,2.2,16.3,4.1,23.7,3.8,1.9,1.1,9.5,2.4,12.8,4.7,3.8,2.9,8.8,4.2,13.2,3.3,1.1,3.3.5,3.2,4.1,5.1,3.9,1.5,13,6.5,17.1,4.2-22.7,9.8-46.6,15.2-69.4.5-.7.2-1.8.3-1.9s3.3,1.3,4.1-.5c0-6.6.7-13.7,4-19.5.7-2.6.5-7.2.8-10,2.9-.6,1.2,2.3,1.6,4,2.9,11.4,5.9,20.9,8.4,32.5,7.7,9.9,4,22.6,9.4,33.7.6,3,.1,7.4.9,10.4,3.6,4.9,4.4,7.1,5.6,12.9.9,3.1-1,6.2,5.4,5.7s1.1-1.2,1.5-1.3c3.4-1.3,6.4-1.1,5.5-5.4,0,0,5.6-2.1,5.6-2.1,2.1-14.7,4.1-31.9,12.2-45,.9-3.7-1.4-10.9,4.7-11.6.5-.5,0-1.8.2-2.3,2.7-3-.4-5.8,3.2-7.9.3-1.4.4-10.3.8-10.7l4.1,2.2c-.2-3.3,4.7-1.3,4.9-1.5.4-.4-.8-2.5.8-2.3.2.8-.9,2.5,1.2,2.2s2.2-2.9,2.9-4.7,3.1-5.2,3.2-5.6c.6-4.1-.4-10,4.1-12.8,1.3-19.6,12.8-39.5,13.1-58.8,3.9-.5-.4,5.8,3.2,6.5,1.7,15.3,6.6,33.2,9,49l1.6-.8c-.7,9.3,3.2,18.5,4.3,27.6,3.1,3.7,8.4,6.2,13.6,5.4v4.5s2.4,0,2.4,0v-3s2.4,0,2.4,0v6s1.6-.8,1.6-.8c-1.3,3.4,1.2,6.4,1.6,8.7-.2,4.5,4.7,19.8,11,14.6,1.2,9.6,5.1,11.1,13.8,15.7.5-2.1,2.1-3.7,4.4-4.4,8.1,7.1.6,16.5,13.1,18.7,1.7-2.7-1-9.3,3.7-7.5.3,8.5,1.7,15.4,8.8,21.2.6,3.4.2,3.6,3.7,4.5-.3,1.7,5.2,17.3,5,4.9,5.5-6.7,2.6-20.2,5.7-28.5,4.6-13.2,6.5-26.6,9.8-39.6,7,1.9,2.3,9.8,8.1,12.8.8-5.5-.4-10.3,4.2-14.5,4.8-10.1,6.4-28,9-39.7,3.3-7.2,11.5-74.6,12-38.1l1.6-.8,6.5,35.3,1.6-.8c-.2,6.3,4.1,12.4,4.1,18.8l1.6-.8.8,9,1.6-.8v5.3s1.6-.8,1.6-.8c.7,12.5,9.9,30.6,24.4,34.6-1.1,2.8,1.6,4,1.7,4.2.4,1.8-.9,4.2,1.2,5.5,2.2.4.9-1.9,1.2-3.2,3.8-1.8,1-8.5,2.5-12,0-.3,3-1.5,1.6-4.3l2.4,1.5c9.7-23.9,12.7-54.5,19.1-78.8,1.6,5.3-.5,11.7,4.5,15.5,2.3,26.4,9.3,51.5,16.3,76.8l2.4-.8v5.9c5.1.7,5.9,5,6.7,8.2,4.3,1.3,2.2.9,3.9,4.3,1,1.4,5.6-4.6,5.7,1.1h2.4c0-11.5,5.2-24.4,7.3-35.8.9-3.5,0-9.4.9-12.5s2.4-1,1.6-2.8c1.6-.1,1.8,0,2,1.5,5.8-2.4,3.2-8.9,4.5-13.8,1.4-8.4,6.5-17.7,7.3-26,2.5-.4,1.3.6,1.6,1.8,2.3,5.6-.3,14.1,4,17.5,1,4.1,0,12,.9,16.2,5.6,2.6,2.7,9.7,4.1,14.3,9,15.8,2.2,12.2,20.3,25.3-.8-1.8,1.5-2.4,1.6-2.8.6-2.3,1.6-4.2,1.6-4.5,2.6-19.5,8.3-38.5,12.2-58.5,3.5-11.9,2-26.2,8.2-36.1,2.8-8.6.2-19.1,6.5-26.3.6-2.3-.7-6.2,2.5-7.7v9s1.6-.8,1.6-.8c-.4,13.5,8.4,26,8.2,39l1.6-.8c-.7,11.4,5.3,21.7,4.9,33l1.6-.8c-.2,17.4,10.5,33.4,10.6,51.1l1.6-.8c-.8,4.6,3.8,6.8,2.5,12l1.6-.8c3.4,9.5,14.4,15.4,18.2,25.3,2.3,2.3,7.3,3,6.3,7.8l1.6-.8c-1,2.5,2.3,4.7,3.8,6.2,1.2,7.8,5.4,7.4,6.8,15.8,0,.3,2.8,1.4,1.7,4.2l5.1.8c.3-.9,2.9-3.3,2.9-3.5-.3-12.2,6-24.5,8.2-36.5.4-1.7,3.6-8.9,4-10.8,2.5-6.4,1-16.1,5.7-21,.7-2.9.1-8.1.8-11s3-1.5,1.6-4.3c2.1-.2,1.3,0,1.6,1.1,1,3-.8,7.8,2.5,9.1,2.1,8.4,2,18.3,4.1,26.8,3.2,11.1,10.6,21,10.6,32.2,3.1,1.5,3.4,6,3.9,9.3.6,1.8,4.8,4.3,4.2,7,.3.2,1.1-.4,1.2-.7,9.1-30.5,13.3-67.2,22.4-96.1-.9,2.3,1.9,2.4,2.3,3.5.2,6-.6,3.9,3.9,8.5.5,5.4-.6,3.6,4,6.1.8,1.2,0,2.8.4,4,4.3,3.7,2.2,11.9,4.1,17.4,1.4,4.1,4.1,8.7,3.2,13.2h2.4c-1.3-2.8,1.5-4,1.6-4.3.2-3.4.1-7.9,4.1-10,.6,14,10.5,28.3,10.6,42.8l1.6-.8.8,2.3c0-2.8,4.2-1.1,3.3-4.5l4.1,1.2.8,7.8,1.6-.8v5.3s1.6-.8,1.6-.8c-.7,10,5.4,20.2,8.1,29.8,1.9,7.1,1,13.7,7.1,19,4.9-.3,2.9-1.5,3.5-4s2.8-1.1,1.6-3.5c3.8.9,4,6,8.1,3.8v9S0,433,0,433Z"/>
</svg>