<?xml version="1.0" encoding="UTF-8"?>
<svg id="Layer_1" xmlns="http://www.w3.org/2000/svg" version="1.1" viewBox="0 0 2120.6 433">
  <!-- Generator: Adobe Illustrator 29.2.1, SVG Export Plug-In . SVG Version: 2.1.0 Build 116)  -->
  <defs>
    <style>
      .st0 {
        fill: #dfebf8;
      }
    </style>
  </defs>
  <g id="PpWQgq">
    <path class="st0" d="M501.5,254.2h1.5c.3.2-.2,4.2,0,5s1.7,1.7,1.9,2.4c.5,1.5.6,2.9,1.1,4.3s-.3,2.8,0,3.4,5.3,5.7,6.3,6.5,2.6.8,2.7.9,0,2.3,0,2.5c.3.5.4,1.2.5,1.4.2.4,1.3.4,1.6.8s-.1,1.2.2,1.6c.5.6,2.7,1.6,2.2,2.9l12.4,2.6c.3-.8-.6-1.7-.5-2.4s1-.1,1.1-.6c.2-.9.3-2,.4-2.7,2.9-14.8,2.9-29,9-44.8l3-1,5,20.6c.3,7.3,3.6,13.4,4,21.3,5.1,10.3,5.2,22.7,7.5,33.7,5.4,3.7,3.7,6.8,4.4,10.7s1.7,4.8,2.1,6.7-.3,3.7,0,4.6c1,3.5,5.2,8.1,6,12l7.8,6.5,4.8.6.5,3.2c.9-.7,0-1.6.2-2.6s1.2-.8,1.3-1.3-.8-1.5-.6-2.3,1.9-2.6,2-3-1.1-1.7,1-2.4l2,11.5,2-.5v-6.4s1.5,0,1.5,0l-.5,6.9,2.4-.2c1.6.5.6,1.4.9,1.7s1.4.3,2,1.2c1.6,2.5,1,7.8,1.8,10.7s1.9.6.6,2l6.2,3.3,1.7-.6c1.1,2.2,7.3,2.3,6.6-.8l2.4.5-.5-1.7,5,.9c-.4-1.1,2.2-2.4,2.4-2.8.4-.7,1.9-4.4,2.1-4.9s-.7-1.5,0-2.1l2.4.6c-.4.8-.2,1.6,1.6,1.7.4-.7-.6-1.6-.5-2.2s1-.3,1.1-.8c.4-2.1,0-4.9.4-6.9s.4-2,.6-2.6,2.8-3.1,3.2-3.1h1.2c-1.2,1.6.5,1.8.5,1.9.2.5-.6,1.1-.5,1.4s1,.2,1,.3c.6,1.8.7,3.2,1.5,5.2s-1,1.5,2.5,1.8l2,7.2,3.9-.5,1.4,2c2.5.5,5.8-2.6,6.7-3s3.1-.7,3.4-.8c1.4-.6,3.5-3.2,5.1-1.6l2.1-2.6,2.4.5v-1.1c2.4,0,1.1-.1,1-1.2,3,.3,2.3-2.4,2.5-2.6s2.5.1,1.5-.9l1.7.6c2.3-.7,2.4-1.7,3.4-2.5s1.7.6,1.1-1.2c4.2-.3,2.1-.9,2.9-1.4s1.4,0,1.7-.3-.4-.8,0-1.2c1.6-2.2.5-1.5,1-3.4s2.2-1.7,2.3-1.9c.4-.8-.6-1.7-.5-2.5s1-.1,1.1-.6c.2-1.2-.3-3.2-.1-4.3s2-1.8.6-3.3h1.5c.2.9-.2,3.1,0,3.8s.9,0,1.1.6-1.3,1.9,1,2.8l1.5-9.6c1.6-1.9,1.9-5,3.2-7.7s1.3-.5,1.7-.6l.5-4.1,4.5-8.3c3-.3,2.1-1.7,5-.5l2-1.9,5.5-23.5,6-25.7,3.5.2c0,.5-.2,2.6,0,3s1.5,2.8,2.1,3.2l2,7.8c1.6,11.6,5.5,20.9,7,33.3l2.5,1.6c1.5-1.7,2.9-3,2-4.9,3.9.5,4.1-.6,7-1.2v-2.1c2.8-.3.6-.7,1-1.7,4.5-13.5,5.2-28.2,8.5-41.5l8.5-34.7,1.5.2c1.2,1.3-.9,3.1,2,3.2l2.5,22.7,2.9,9.9,3.6,14.1,1.6,8.1c2.9,1,.9,2.1,1.3,3.4s1,.4,1.1.6c.2,1-.2,3.2,0,4s.3,2.1.5,3.2,2.3,4.1,2.6,4.9-.3,3.8,0,4.6,1.9,3.2,2.1,4.1-.6,1.1-.5,1.4,1,.2,1,.4c.2.6-.7,1.3-.5,1.9s1,.2,1,.4c.2.6-.6,1.2-.5,1.6s1,.2,1,.4c.2.6-.9,1.5-.1,2.3.7.3,4.8,2.2,5.1,2.3,1.5.3,4.4,0,6.9.7s2.4,2,2.7,2.1,1.8-.5,3.2,0,.9,1.3,2.1,1.4c1.7-.3-1.4-1.8,1.7-1.4-.9,2.9,2.7,3.7,3,6h2.5s0-1.2,0-1.2h1.5s2,4.9,2,4.9l3,1.6,1.5,9.6,2-.3c-1.7-1.3,1.3-1.9,1.4-2,.1-.2-.6-.7-.5-.9s.9-.2.9-.2c.7-1.4.2-3.8.6-5.5s.9-.2,1-.3c.7-3.2.5-6.7,1-10.1s1.1-.4,1.1-.6c.3-2.2.8-5.2,1-7.4s-1.7-5.1,1.5-6.9c0-2.6-.3-5.8,0-8.4s1.4-7.6,1.6-10.6c.3-4.8,0-8.9.4-13.5s1,0,1.1-.6c1.4-12.4-.8-26,2-38.9s.3-2.4,2.5-2.2l1,3.2v-2.9s2.5,0,2.5,0l.5,2.6c1.2-.4-.4-1.8,2-1s2.9,9.9,4,12l3.9-.2,3.6,22c1.6.4.8,3.1.9,4s1,.2,1,.4c.3,1.2-.3,4.3,0,5.7s1.5,2.8,1.5,3c.5,2.3,0,5.3.5,7.4s1,.2,1,.4c0,.5-.7,1-.5,1.6.2,1.2,1.7,4.1,2,5.6s-.2,3.3,0,4.2,1,.2,1,.4c0,.5-.7,1-.5,1.6s1,.2,1,.4c.4,2.1,0,4.5.5,6.5s1,.2,1,.4c0,.5-.7,1-.5,1.6.6,3,1.9,6.4,2.5,9.3s-.6.9-.5,1.4,1,.2,1,.4c.2.9.4,2,.5,2.6,1,5,2,9.9,3,14.7s1.3,6.9,2,10.4-.3,3,0,4,1,.4,1.1.6c.1.6-.6,1.2-.5,1.6s1,.2,1,.4c.7,3,.9,6.2,1.5,10,2.8,1.1,2.8,4.7,5,5.8s4,.2,3.6,1.6l2.2-.3c.9,1.3,2.6.4,3.5.6s2,1.1,2.2,1.1c.3,0,3.7,0,4.4,0s0,.9,1.3.6c-.1-1.9,2-1.2,2.4-1.5,1.2-.7,2-2.1,4.1-2.9l2.9-12.9c2.2-1.5,2.3-4,2-6l3,.3c-1.3-1.5.5-1.8.5-1.9.9-3.7,1.9-5.7,3-8.6s-.8-1-.6-1.4,3.6-1.7,4-1.6c.2-.2-.7-1-.5-1.5.5-1.3,3.3-4,3.9-5.1s0-2.9.3-3.7,2.2-2.1,2.6-2.6,1.7-.3,1.7-.3c.2-.1-.7-2.5,2-3.1l2.1-12.9,2-.5-.5,1.6,1,.4c-.5-1.6,1.2-.4,2.3-.8s2.4-1.6,4.1-2.1l.6-5.7c.7.6,2.9-2.1,3-2.2s-.2-3.1,0-3.3c1-1.4,3.2-1.9,4.5-.3s.8,2.6,1,3.2-.7,1.1-.2,1.7,1.7.4,2,.6c.7.6,0,2.8.1,3.3s1.6,1.9,1.6,2c.3,1.3-2.3,1.9,2,1.3l.3,1.2,3.1.3.5,1.4v-2.6s1.7.3,1.7.3l2.2,12.5c1.8.4.9,1.7,1.8,2.5s3.1-.2,1.7,2.6l2.5-.3c.2,0,0,2.5,0,2.7.4,1.4,2.2,2.8,3,4.4s-.7,1-.5,1.6,1.9.8,2,1c.6,1.8-1.2.7,1.5,3.1s.3-.3,1.5,1.4,1.5,1.7,1.5,1.8-.1,2.6,0,2.8c.5,1.3,2.8,3.1,2,5.5l3.5,2.1v3.5s1.5,0,1.5,0l2.5,13.3c2.3,1.1,6,4.5,8.6,5.3s1.4-.3,2.1-.2c1.6.3,1.8,1.2,4.1,1.1s2.3-.6,3.5-.6.6.6,1,.6,1.2-.7,2.4-.6c2.9.2,9.3,1.8,13.1,2l6.3-1.3,4.7,5.7,2.7-1.1c.4.9,0,2,2.1,1.7l-.5,1.1,3-.3c0,2.7,3.5,2,6,2.5,5.3,1.1,9.8,1.8,15.4,2.4s2.6-1.1,3,.6c2,.3,4.7-.4,6.4-.3s.3.6.7.6c.8,0,1.9-.4,2.8-.3s.3.6.7.6c.8,0,2-.4,2.8-.3s.6.8,1.2.9c1.8.1,5.3-.4,7.3-.3,2.9.2,7.7.3,11.1.5s2.2.8,4,.9,0-.7,1.5-.6.7.6,1.5.6c3.6.3,10.3,1.7,10.8-1,2-1.5,4,3.5,3,4.1l5.4.2,1.1,1.5c2.5-.9,3.6.3,3.8.3.7,0,1.8-.4,2.8-.3,7.2.6,10.6.7,18.7.3s6.3.2,7.3,0,4.5-1.9,4.7-2c.9-.2,3,.2,3.6,0,1-.4,1.2-3.1,1.9-3.7l4.4,1.4,9.7-.9c.2-1.5,2.9-1.1,4.4-2.2,2.9-2.1,1.6-4,2.2-6.2s1.5-2.7,1.6-2.9c.2-.9-.3-3.4,0-4.3s1-.2,1-.4c.2-.8-.2-3.2,0-4,.3-1.6,1.7-3.9,2.1-5.5s.3-1.8.5-2.4c1.7-8.4,3.3-17.4,5-25.6s-.2-3.2,0-4,1-.2,1-.4c.2-.8-.2-3.1,0-3.9s1,0,1.1-.6c.2-.8-.7-1.6-.6-2.3s1.5-1.7,1.5-1.8c.2-1-.2-3.6,0-4.5s1-.2,1-.4l3.5-15.6-.5-1.3h1.5s1.5,11.5,1.5,11.5l1.5-.2,3.5-19.4h1.5c.2.7-.7,1.5-.6,2.2s1,.4,1.1.6c.2.9-.2,3.4,0,4.3s1,.3,1.1.8c.8,5.1.6,8.8,2.5,13.9s-.6,1.2-.5,1.4.4.5.7,1.3,1.8,1,1.9,1.1c.2.5,0,2.5.3,3.5s1.1.3,1.2.5c.2.4-.2,2.7,0,3.1s3.2,1.1,1.5,2.3l1.5,6.8,1.5.3,4-11.4c.2-1.1.4-2.8,1-4.3s2-1.2,2-1.3c.2-.5-.2-2.5,0-3.1s1.5-1.7,1.6-1.8c.2-.6-.7-1.2-.5-1.6s1.5-2.2,1.5-2.4c.1-.4-.7-1-.6-1.4s1.8-.4.5-1.9h1.5s3.5,16.1,3.5,16.1l2-1.1c.6-2.8-.3-5.8,0-8.6,1.6-18.6,1.7-38.9,4.5-56.7s1-.4,1-.6c1-6.2,1.3-12.3,2-18.5h1.5c-.2,6.6.9,13.2,2,19.7.2,1-.2,2.3,0,3.4s1,.2,1,.4c2.3,13.8,1.5,28.1,2.4,42.3s1.2,13.5,2.6,19.8-.8,1.4-.6,2,2.6,3,3.2,4c2,3.9,1.1,8.6,7.7,12l1.1.3c-1.3-1.4.5-1.4.5-1.9.2-3.1.7-6.4,1-9.2,1-8.1,1.7-17.7,2.9-25.4s2.7-21.8,4.5-32.3c.2-.9-.5-2.3.5-3,.1.9-.2,1.8,0,2.7,2.4,11.4,2.9,24,4.5,36,.9,7,3,14.4,3.1,21.9l1.5,10.6,3.5.6c-.3,1.2,2.9,1.4,4.7,2s0,.7.7.9c1,.3,4.2.3,5.3,0,1.9-.6,3.2-6.4,2.9-8.1h1.4c1,.6,0,1.6.1,1.9.7,2.1,1.9,5.5,2.4,7.8s-.7,1.3-.5,1.9,1,.2,1,.4c.7,3.1.8,6.4,1.5,10l3.4,1.9,1.6-3.1h1.5c.7.6.4,2.8.5,3s1.5,2.1,1.7,2.5c.5,1.2-.2,2.8,1.8,3.3l.5,8.5c4.3,0,2.2,1.5,2.5,2.4s1,.2,1,.4c.1.4-.7,1.1-.5,1.6s1.9.8.5,2.2l3,1.2c.2-.2,1.5-1,1.5-1,.2-.5-.1-3.2,0-3.7s1-.2,1-.4c.1-.4-.7-1.1-.5-1.6s1-.2,1-.4c.1-.4-.7-1-.5-1.6.5-2.2,2-5.1,2.5-7.3s.4-2,.5-2.6c.7-3.2.7-7.5,1.4-10.6s2-3,2.1-3.2c.1-.4-.7-1-.6-1.4s1.5-1.7,1.6-1.8c.1-.4-.7-1-.6-1.4s1-.2,1.1-.4-.2-2.1,0-2.5,1-.2,1-.3-.7-.9-.5-1.4.9-.2,1-.4c.1-.3-.9-.9,0-1.7s1.9-.4,2-.5c.1-.1-1.2-1.4.7-2,2.8.2,6.6,4.8,6.8,6.3h1.9s-.5,1.5-.5,1.5l1.7.6,1.7-.9.5,2.3,2-.5,1-5.2,4.5-20.3h1.5s3-13.2,3-13.2l1.5.3,1,2.3,2.6-13.6c1.9-1.5,2.1-3.2,1.9-5.1l2.5,1.1,3.5,14.7,5.5,24.5,2,4.3.5,7,2.3.3,3.3,8,2.4,12.2h1.5s.5-6.4.5-6.4c2.7-.8.8-2,1-2.9s1-.3,1.1-.8c.5-2.4-.3-6.1.4-8.6s1-.2,1-.4c.2-.8-1.7-2,1.5-2.3v-4.5c1.7-.8.7-3.7,1-4.9s1-.2,1-.4c0-.5-.7-1-.5-1.6s1-.2,1-.4c.1-.5-.7-1-.5-1.6s1-.2,1-.4c.1-.5-.7-1-.5-1.6s.9,0,1.1-.6c.4-1.6,0-4.4.4-6.3s1,0,1.1-.6-.7-1.2-.6-1.7,1-.2,1-.4c.1-.6-.7-1.3-.5-1.9s1-.2,1-.4c.2-.8-.2-3.2,0-3.9.8-3.7,2.7-8.2,3.5-12.2s-.8-1.6-.5-2.2,2.8-.7,2-1.9h1.5s-.5,1.2-.5,1.2l2-.8,3-17.5c.9-2.3,2.1-4.8,3-7.6s-.7-1.2-.5-1.6,1-.2,1-.4c.2-.7-1.6-2.4,1.5-2.1.2.9-.7,1.8-.6,2.7.2,1.7,1.7,4.6,2.1,6.1s-.2,2.6,0,3.1,2,3,2,3.2c.5,2,1.1,4.3,1.5,6.1.7,3.1.5,6.2,1,9.1s1,.2,1,.4c0,.4-.7,1-.6,1.4s1,.2,1,.4c0,.3-.2,3,0,3.4s1.9,1.2,2,1.3c.3.5-.7,1.3-.5,1.6s1,.2,1.1.4c.3.6-1.3,1.2,2,1.7-.8,1.5-.4,3,0,4.5s.9.2,1,.4c.1.6-.6,1.2-.5,1.6s1,.2,1,.4c.2.9-.2,3.3,0,4.2s1,.2,1,.4c.1.6-.7,1.3-.5,1.9s1.5,2.5,1.5,2.7c.6,2.8.4,6,1,8.8s1,.2,1,.4c.1.6-.6,1.2-.5,1.6s1,.2,1,.4c.3,1.2-.3,3.7,0,4.8s1.8,3.9,2.1,4.9-.7,1.3-.6,1.7,3.4,3.6,3.6,4.1l2,10.6c3.3,2.6,9.7.1,8.5-2.4l2.5.9,1-5.2,2.7,1.4,2.3-1.6c-.8-1.1.8-3.2.9-3.7s0-2.5,0-2.9,1-.2,1-.3c0-.3-.7-.8-.5-1.4s1-.2,1-.4c.2-.8-.2-3.1,0-3.9s1-.2,1-.4c.2-.6-.7-1.3-.5-1.9s1-.2,1-.4c.3-1.2-.2-3.6,0-4.8s1.4-1.2,1.4-1.3c.2-.6-.7-1.3-.5-1.9s1-.2,1-.4c.2-.9-.2-3.1,0-3.9s1-.2,1-.3c0-.3-.7-.8-.5-1.4s.9,0,1.1-.6c.7-2.6-.9-5,2.4-6.9,0-.3,0-2.2,0-2.3,0-.2,2-2.5,2-2.6.6-1.8,0-4.5.5-6s1-.2,1-.3c.2-.8.2-3.5.6-4.2,1.3-2.1,2.8-1.9,4.9-3.3l3.2-18.2,1.8-.6-.5,1.7,2,.3-.5-1.7c1.5,0,3.1-1.3,3.7,0l1.5-2.6,1.3.2.7,2.4,4.7-5.7,3-12,16.6-60.9h1.5c1.2,5.7,1.3,11.5,2.6,17.1,3.6,15.6,9.1,32.9,12,47.3.6,2.8,1,5.4,1.5,7.8s-.2,3.3,0,3.9,1,.2,1,.4c.2.6-.8,1.4-.5,1.9s1.9,2.7,2.1,2.8c.3.2,1.7,0,2.2.3.7.5,2.3,2.2,3.3,2.5s5,1,3.9-.2h1.9s.6,4.8.6,4.8l1.9.3,1-4h2s2.5,9.1,2.5,9.1l1,10,2,.8c0-1.3-1.5-1.8.9-2.5l5.1-25.3,2-9.5c0-.2,1-.2,1-.4.2-1-.3-3.2,0-4.2s1-.2,1-.4c.1-.6-.7-1.3-.6-1.7s1-.4,1.1-.6c.2-.8-.7-3,0-4.1l1.5.2.9,5.7,3.5.5c-1.2-1.3.7-2.3,2.7-2.9l.8-5.1h1.5c-.1,1.4,1.9,2.6,2.3,3.7,1,2.3.9,6,1.7,8.6s-1.3,1.8,2,1.8l.5-1.2,1,2.4c.9,10.4,4.2,20.5,3.9,32.3,3.8,2,1.7,2.1,2,4.3s1.1.6,1.1,1.1c0,1.1-1,2.4-.6,3.6l2.5-.6c.2.9-.7,1.8-.6,2.7s1,.4,1.1.6c.4,2.5,0,5.5.4,7.7s.7,3.2,1,4.9c1.1,6.4,2.9,13.1,4.1,19.6s-.4,3.9-.1,5.2,1,.4,1.1.6c.2.8-.2,3.3,0,4.2s1,.2,1,.4c.1.6-.7,1.3-.5,1.9s1,.2,1,.4c.1.5-.2,2.6,0,3.1s1.8,3,2,3.8-.6,1.1-.5,1.4l3,10.7,4,5.9v-1.2s1.5,0,1.5,0l.5,5.2h1.8c0,.1,25.2-137.9,25.2-137.9h1.5c-.3,3.2,1,6.2,1.5,9.4s1.2,6.2,2.1,9.8-1.1,2.1-.6,2.9,2.6.4,3,2,.6,3.8,1.1,5.5-.2,2.5,0,3.4.9.1,1,.3c0,.4-.7,1-.6,1.4s1,.2,1.1.4c0,.4-.6,1-.6,1.4s1,.2,1,.4c.1.6-.7,1.3-.5,1.9s1,.2,1,.4c.3,1.7.8,3.7,1,5.1s-.4,3.8-.1,5.2,1,.4,1.1.6c.1.5-.6,1.1-.5,1.4s1,.2,1,.4c.2,1.1-.3,3.7,0,4.8s1,.2,1,.4c.1.5-.3,2.4.1,2.9s1.1.6,1.4.6c-.5-1.3,1.9-1.1,2-1.2s-.6-.7-.4-.9c.7-.8,1.5-.9,1.7-1.2s-.6-.9-.3-1,1.3.1,1.4,0c.8-.8.5-2.2.6-2.3s1.2,0,1.4,0c.5-.4.3-1.2.6-1.5s1.8-.1,2.3-1.1-.5-1.4-.3-2.1c.4-1.6,1.6-4.4,3.5-6.5l4.5-20.4c2.1-.4.3-1,.5-1.7.6-2.4,2.2-6,3-8.1s.6-1.1.6-1.2c.3-.8-2.2-1.8,1.5-1.5.3.8-.6,1.7-.5,2.4s1,.2,1,.4c.1.6-.6,1.2-.5,1.6.3,1.5,1.8,4.1,2,5.3s-.2,2.8,0,3.6,1,.2,1,.4c.2.7-.8,1.5-.6,2.3.5,1.9,1.6,4.4,2.2,6.4,1,3.2,2.4,6.3,2.8,9.7s1.5,9.8,2.6,14.4-1.3,2,1.4,3l9.1-60,1.9-.5c.2,2.2,1.4,4.4,2,6.5,1.4,5.7.9,11.3,1.6,16.9,0,.2,1.9.2.5,1.4h1.2s.8-2,.8-2h1.5s3.5,18.2,3.5,18.2l2.5,1.6,13-57.9c1,3.6,1.1,7.2,2.1,10.8,4.1,15.6,5.9,29.6,9.4,43.3-.7,1.1.8,3.2,1,4s-.3,3.7,0,4.8,1,.2,1,.4c.1.4-.1,2.7,0,3.1s2,1.4,2,1.5c.2.5-.2,3,0,3.4s1,.2,1,.4c.1.4-.7,1.1-.5,1.6.6,1.8,2.4,4.5,3,6.4s-.7,1.2-.5,1.6,1.2.2,1.3.7-.4,1.2-.3,1.6,1,.2,1,.4c.4,1.4-1.1,4.4,2,5l-.5-1.1h1.5s.5,6.3.5,6.3c3.7-.2,4.9,2.6,5.9,4.2s-.4.9-.3,1.1c.2.4,1.3.3,1.5.6s-.7.9-.6,1.1.9.1,1.2.5c.6.8-.2,1.8,2.3,1.7v3.2s5.5-2.3,5.5-2.3l3,4.3,2.5-12c0-.4-.6-.9-.6-1.4s1-.2,1.1-.4c0-.4-.6-.9-.5-1.4s1.5-3.3,1.6-3.8c.7-3.5-.1-7.7,2-11.2l2.9-17.8c1.5-.9,2.3-1.3,1.5-2.5l3.5,1.1-.5-1.3,2-.5.5-6.4c1.7-1,1.2-4.4,1.5-5.8s1-.2,1-.4c.2-.9-.2-3.4,0-4.2s1-.2,1-.4c.2-.9-.3-3.3,0-4.2s.3-.9.5-1.4,1.9-2.8,2-3c.5-1.7.6-4.1,1-5.4l1.6-5.3h1.5s5.5,28.3,5.5,28.3c.3,1.4-.4,4.1,0,5.5s2,1.7,2.1,1.8c.5,1.2,0,3.6.4,5.1s1,.3,1.1.8-.6,1.1-.6,1.4,1,.2,1,.4c.2.6-.7,1.3-.5,1.9s1,.2,1,.4c.2.6-.7,1.3-.5,1.9s1,.2,1,.4c.2.9-.2,2.7,0,3.6s1.9,1.2,2,1.3c.2.5-.6,1.1-.5,1.3,1.6,3.4,3.6,7,6.9,9.6s.5,1.7,1.2,2l2.9.4-.5,1.1c2.1-.2,1.6.9,2.7,1.8s2.2,0,2.8,2.4l2.5.7c.9-.7-.1-1.7,0-2.1s1.4-2.2,1.5-2.3c.2-.7-.1-2.5,0-3.1s1-.2,1-.4c.1-.4-.7-1.1-.5-1.6s1-.2,1-.4c.1-.4-.7-1.1-.5-1.6s1-.2,1-.4c.1-.4-.7-1-.5-1.4s1-.2,1-.4c.2-.8-.2-3.4,0-4.2s1.5-1.4,1.5-1.5c.2-.6-.2-2.8,0-3.4.6-2.3,2-5.1,2.6-7.5s-.7-1.1-.6-1.7,1-.2,1-.4c.2-.8-.2-3.2,0-3.9s.9,0,1.1-.6c.5-2.5,1-5.1,1.5-7.5s-.7-1.2-.6-1.7,1-.2,1-.4c.1-.6-.7-1.3-.5-1.9s1-.2,1-.4c.2-.8-.2-3.1,0-3.9s1-.2,1-.4c.1-.6-.6-1.2-.5-1.6,4-18.9,8.3-43.5,14.6-64.2.3-1.1,2.6-3.1,2.8-3.8,1-2.7.3-6.4,1.1-9.2l2,.6c.9,8.5,2.8,17,5,25.4s1,.4,1,.6c3.9,15.3,8,32.2,11,46.1s-.7,1.5-.6,2.3,2,3.6,2.1,3.8c.2.9-.2,3.5,0,4.5s1,.2,1,.4c.2.8-.2,3.2,0,3.9s.9,0,1.1.6c.2.8-.3,3.2,0,4,.4,1.6,1.4,4.1,2,6.3s1.5,2.2,1.5,2.4c.2.6-.2,2.8,0,3.4s1,.2,1,.4c.2.6-.7,1.2-.5,1.6s1,.2,1.1.4c.6,2.2.3,5,1,7.5s1.4,1.6,1.5,1.8c.1.5-.4.9-.5,1.4l5.5,15.8c1.7.6.4,4.3,1.4,5.2s2.3-.3,1.5,1.6h2c-1.2,1.8.8,3.2,2.5,4.8s.4,1.3.6,1.5,1.8,0,2.3.4.8,2,1.5,2.7c4,4.1,5.7,8.2,9.3,11.8s1.2,0,1.3.1c.3.3-.2.9.2,1.3.8.8,4.6,1.4,2.8,2.9l2,.3c-1,3.1,4.3,5.7,4.6,8.6,0,0,.8,0,.9.2.6,1.1,0,2.9,1.1,4.4s1.7.6,1.7.7c.4.5,1,2.5,1.4,3.1.6,1,.6.8,1.2,2.1.9,2,1.9,3.8,3,6.1s-.7,1.3-.5,1.5,3.3.4,3,1.7c-.2-1,1.8-.3,2.8-.9,2-1.1,1-3.9,1.2-4.8s1-.3,1.1-.8-.7-1.5-.6-2,1-.2,1-.4c.1-.6-.7-1.3-.6-1.7s1-.4,1.1-.6c.1-.5-.7-1.1-.5-1.6s1-.2,1-.4c.1-.4-.7-1.1-.5-1.6s1.5-1.7,1.5-1.8c.1-.4-.7-1-.6-1.4s1-.2,1-.4c.2-.6-.7-1.3-.6-1.7s1-.4,1.1-.6c.1-.5-.5-1.1-.3-1.8s1.3-.5,1.3-.7c.2-.7.4-1.4.5-1.7.3-.9,0-3.3,0-4.2l4.1-12.9c2.3-1.4,1.1-2.9,1.4-3.8s1.8-3.7,2.1-4.6-.8-1.1-.6-1.6,1.4-.2,1.6-.9-.2-2.9,0-3.4,1-.2,1-.4c.1-.4-.7-1.1-.5-1.6s1-.2,1-.4c.1-.4-.7-1.1-.5-1.6s1-.2,1-.4c.1-.4-.7-1.1-.5-1.6s1-.2,1-.4c.1-.4-.7-1.1-.5-1.6s1.9-3.3,2-3.8c.2-.8-.2-3.6,0-4.5s1-.2,1-.3c0-.3-.7-.8-.5-1.4s1-.2,1-.4c0-.3-.7-.8-.5-1.4s1-.2,1-.4c.1-.4-.7-1.1-.5-1.6s1-.2,1-.4c.1-.4-.7-1.1-.5-1.6s1-.2,1-.4c.1-.6-.6-1.2-.5-1.6s1,0,1.1-.6-.8-1.5-.6-2.2h1.5c.2.7-.7,1.5-.6,2.2s1,.4,1.1.6c.1.5-.6,1.1-.5,1.4s1,.2,1,.4c.3,1-1.8,1.7,1,1.5-1.2,1.3.5,1.5.5,1.6.2,2.3,0,4.2.6,6.6s.6,4,.9,6.3,2.2,2.4,1,3.1l4,19,2,1.5v3.5c2.8-.3,1.4,1.6,1.8,2.5s2.2,2.9,2.5,4,.5,1.6.7,2.2-.8,1.5-.6,2.2,2.4,1.8,2.5,2.4c.3,1.6-.5,3.9.5,5.9s2.2,1.3,2.4,1.9-.6,1.5-.5,2,1,.4,1.1.6c.6,1.6.8,2.5,1.7,4.2s.5,2.8,1.1,3.7,2.2,0,.8,1.4l3.4.8.5-6.4c.4-.7,2.3-3.6,2.5-4.4s-.3-3.3,0-4,1-.4,1.1-.6c.1-.4-.7-1.1-.5-1.6s1-.2,1-.4c.2-.7-.2-3.1,0-3.9s1-.2,1-.4c.1-.6-.7-1.3-.5-1.9s1.5-1.8,1.6-2.1c.4-2.1,0-5.4.4-7.7s1.8-4.1,2.1-5.5-.3-3.5,0-4.6,1-.2,1-.4c0-.5-.7-1-.5-1.6s1-.2,1-.4c0-.5-.7-1-.5-1.6s1-.2,1-.4c.1-.6-.6-1.2-.5-1.6s.9,0,1.1-.6c.2-.9-.2-2.8,0-3.7s1.5-2.8,1.5-3c.2-.7-.2-2.7,0-3.4s1-.2,1-.4c0-.5-.7-1-.5-1.6s1.5-2.9,1.6-3.2c.2-1.1-.3-3.5,0-4.6s1-.2,1-.4c.6-2.7,1-5.1,1.6-7.7s-.2-3,0-3.7,1-.2,1-.4c.2-1-.2-3.5,0-4.5s1,0,1.1-.6c.2-1.1-.4-2.3,0-3.3l1.7-.6c.4,0,3,2.1,3.1,2.3.4.8-.4,1.3-.3,1.6s1.5,2.4,1.5,2.6c.1.6-1.1,1.7-.5,2.5l3,1,1.1,5.5,2.9.6,7.5,26.4c1.6,12.7,5.5,23.3,7.5,35.7.7,1.7,2.1,3.9,2.5,5.5s0,2.9,0,3.7c.6.5,1.9,2.7,2,3.2s-.6,1.1-.5,1.4,2,2.8,2,2.9c.3.9.2,3.5.5,4.2s2,1.4,2,1.5c.4.9-1.9,1.7,1,1.5-.6.8-.3,1.7,1.5,1.7l-.3-2,1.8-.6,2.5,14.5c2.9,4.1,3.1,5.9,8.5,9.3,1.7,1,1.9,2.9,4.5,2.1l-.5,1.4c3.2,0,3,1.8,4.2,2.6s2.3.6,3.3,1,.4,1.7,3,1.3l1-4.3,4.5,1.1c.3,0,1.3-3.5,2.5-1.3s-.6.9-.5,1.1.9.1,1,.4-.2,2.6,1,3l3.8-1.2,2.7.6c-.3-.9-.2-2.1.2-2.9s1.7-1.1,1.8-1.3-1.1-2.4,2-1.6c1.3,1.3,1.2,2.7,1.7,3.8s1.9,1.3,1.9,1.9v6.2H0v-46.5c0-.2-.8-.6-.5-1,1.7.1,4.3.2,5.8-.6s.3-1,.9-1.4c1.6-.9,3.7-.3,3.8-.4s-.2-.8.8-1.1c3.6-1.3,5-.9,8.6-3s0-.9.6-1.2c.8-.5,2-.3,2.5-.6.8-.4.7-1.6,2.8-1.6l2.6,5.8c1.8-.4,3.6-.1,5.4,0s.7.6.9.6c.6,0,1.3-.8,1.6-.9,3.3-.5,9.1-1.3,12.4-1.2s-.8.7,3.1,0c3.5-.6,3.8-.1,5.4-2.6.3,0,4.7.7,4.9.8.7.4,1.9,3.8,3.3-.2h1.5s.2,1.4.2,1.4l3.6-2.3,2.2.5v1.5s1.9-.3,1.9-.3v-1.1c0,0,2,0,2,0v.8c0,0,2.8-.9,2.8-.9l1.8,1.2,5-.9.3-1.4,2.6.2,3.6-3.1,2,.6-.5-1.4,1.5.2.5,1.8h1.5s.5-1.4.5-1.4h1.5s2.5,3.2,2.5,3.2c2.1.4,2.8-.8,4.1-1,3.2-.5,9.8-.6,12.4-1.4s3.2-1.9,3.5-2c5.4.9,3.4-2.4,8.8-2.3s1.7,1.6,3.9-1.1c3.5.9,2.7-1.8,2.9-2.1s1.1,0,1.3-.1c1-.7,4-2.1,4.1-2.2.4-.4-.2-1.7.7-2.2s3.1-.2,3.8-.4,6.3-3.5,7.1-4.2c1.4-1.3,2.8-3.9,4-5.3s1.5-.1,1.5-.2c.2-.2-.7-.9-.3-1.4,1.4-1.6,3.1-2.8,4.3-4.3h1.5s1,2.3,1,2.3l1.9-.5c-.5-1.2,2.5-3.3,2.6-3.5.1-.4-.7-1.1-.6-1.4.2-.6,1-.4,1.1-.6.1-.4-.7-1-.6-1.4s1-.2,1-.4c.4-1-1.2-2.3,2.5-3.5l1.1-6.4h1.5s.5-6.9.5-6.9l2,.5c-1.1,1.8,1.6,3.3,2,5.2s-1.7,2.1,1,1.8c.1.7-.2,2.8,0,3.3s.9,0,1.1.6-.2,2.6,0,3.4,1,.2,1,.4c.4,2.7-.2,9.7,1,11.7s2.5,1.4,2.5,1.5c.3.5.3,2.9.5,3.4s1.2,2,1.4,2.2,3.1,1.5,4,1.1c-.3,1.9,2.8,1.6,3.5,2s-.1.9.1,1.1c1.9.9,4.9,1.6,6.9,1.2.2.3,1.4,2.4,1.6,2.5.3.2,2,0,2.3.4s1.7,2.4,2.1,2.8l14-2.4.5-2.2c6.5,2.1,8.7-1.6,14.4-2.3v-2.3c0,0,5.5-.3,5.5-.3l1.6-2.8h6.5c.8-1.6,4.2-.7,7.1-1.5s3.7-2.9,6.9-2.6l-.5-1.1c1.2.4,5.3-2.5,5.6-2.5,2.4-.3,1.7,1.3,5,.4s1.6-1.3,2.2-1.7,3.6.2,2.7-2l3.5.6-.5-1.1c.9.5,3.1-2,3.4-2.4s.9-2.1,1.2-2.7-.8-2.1.8-2.4c3.6-.7,2.1,3,3.8,4l3.4-.2c0-.4,0-2.5,0-2.7s1-.2,1-.4c.1-.4-.7-1.1-.5-1.6s1-.2,1-.4c.2-.9-.3-3.3,0-4.2s1-.2,1-.4c0-.3-.7-.8-.5-1.4s1-.2,1-.4c.1-.4-.7-1-.6-1.4s1-.2,1-.4c.1-.5-.2-2.8,0-3.4s1.1-2.3,1.5-2.3l2.1-10.8h1.5s.6,4.2.6,4.2l1.4.7c-.4-1.1.4-3.1,1-4.4s.9-.2,1-.4-.9-1-.2-1.8,2.3-1.3,3.2-1.9,2.2.4.9-1.1c2.2-.7,2.2-2.6,2.3-3.9h3.4s1.1-1.2,1.1-1.2l1.9.3c.1,1.4,4.9,1.2,6.3,1.2l2.5,3.7,4-.3c-1.2,1.2,1,2.3,1,2.5.2.6-.2,2.5,0,3.1s1,.2,1,.4c.2.6-.7,1.3-.5,1.9s1,.2,1,.4c.1.4-.7,1-.6,1.4s1,.2,1,.4c.1.4-.7,1.1-.5,1.6s.9,0,1.1.6-.7,1.2-.6,1.7,1.5,3,1.5,3.3c.1.5-.6,1.1-.5,1.4s1,.2,1,.4c.1.6-.7,1.3-.5,1.9s1,.2,1,.4c.2.6-.1,2.6,0,3.1s.9,0,1.1.6c.2,1.1-.4,4-.1,5.2s1,.4,1.1.6c0,.4-.1,2.3,0,2.9.4,1.4,2,3.4,2.5,4.6s.2,3.2.7,4.2,2.8,1.2,1.3,2.6l8,2.9,5-2.6,3.5-12.3c0-.2-.6-.7-.5-1.1s1-.2,1-.4c.2-.6-.7-1.2-.5-1.6s1-.2,1-.3c.1-.4-.1-2.5,0-2.8s1.5-1.7,1.5-1.8c.2-1-.2-3.6,0-4.5s1-.2,1-.4c0-.3-.6-.8-.5-1.4s1,0,1.1-.6c.2-1-.7-1.9-.5-2.9s2-1.7,2-1.8c.5-1.4.1-3.8.4-5.1.5-2.3,1.5-5.1,2-7.2s.3-3.9.6-5.2,1.5-1.5,1.5-1.5c.3-1.2-.2-3.8,0-4.8s1-.2,1-.4c0-.5-.7-1-.5-1.6s1,0,1.1-.6-.7-1.6-.6-2c.4-2.2,1.7-4.9,2.1-6.9s-.7-1.6-.6-2.3c.2-1.1,1.8-3.9,2-5,.4-2.1,0-4.7.5-6.8s1-.2,1-.4c0-.4-.6-.9-.5-1.4s1,0,1.1-.6c.2-.9.3-2,.4-2.7.2-1-.2-3.3,0-4.3.4-2.4,1.7-5.4,2.1-7.8s-.3-3.8,0-4.9,1,0,1.1-.6c.2-.9-.3-3,0-4s1-.2,1-.4c1-5,1.2-9.5,2-14.3l6-30.1h1.5s5.6,31.8,5.6,31.8l1.4,2.7h1.7s4.3-34.6,4.3-34.6h1.5s4,32.4,4,32.4c0,4.5.4,8.7,1,13.2s1,.1,1.1.6c.7,4.9.1,9.8,1.3,14.8s2.1,1,.7,2.6h2.4s.7,6,.7,6l1.9.3-.5-2.4,3.8-1.6,2,1.4,1.3-1.7,4.5.9c-1.3-1.6.4-2.4.6-3.3.3-1.5-.3-3.9,0-5.5,1-6.8,2.4-13.3,5.5-19.7h1.5c.3,1.3.7,2.6,1,3.9,1.7,7.5,2.4,16.9,3.1,23.9s-.8,2-.6,3.2,1.9.9,2,1.2-.7,1-.5,1.4,1.5,1.7,1.5,1.8c.3,1.1-.7,3.3.5,4.7l2.5-.3,1,.7c.8-1.5,3.4-2.2,4.8-3.4s-.7-2.3,2.6-1.4l5.4-5.5,2.6-5,5.5-24.9h1.5s4,19.3,4,19.3l4.5-20.4h1.7c4.9,7.6,3.4,16.2,11,23.3l2.2,9.5,2-.7c0-.8-.2-3.1,0-3.7s.9,0,1.1-.6-.7-1.3-.6-2,2-1.2,2-1.5v-7.1Z"/>
  </g>
</svg>