<?xml version="1.0" encoding="UTF-8"?>
<svg id="Layer_1" xmlns="http://www.w3.org/2000/svg" version="1.1" viewBox="0 0 20 16">
  <!-- Generator: Adobe Illustrator 29.6.1, SVG Export Plug-In . SVG Version: 2.1.1 Build 9)  -->
  <path d="M10.58,1.18c-.54,1.35.02,2.42,1.02,3.31s1.95,1.34,2.68,2.58c1.19,1.99.8,4.83-.91,6.41-3.15,2.92-8.12.76-8.33-3.43-.09-1.66.35-3.33,1.51-4.55,0,.96.11,1.92.7,2.7.05.07.28.35.35.38.04.02.08.03.11-.01.07-.1-.12-.7-.14-.87-.22-2.27.13-4.19,1.88-5.75.1-.09,1.06-.84,1.13-.77ZM10.58,9.42c-.06-.05-.29.61-.32.67-.52,1.05-1.58,1.8-2.73,1.98-.03.01-.06.03-.05.07.03.12.82.65.97.73,2.22,1.18,4.93-.27,5.26-2.74.22-1.65-.89-3.4-2.49-3.87-.04.05.47.96.52,1.1.51,1.26.1,2.77-.81,3.73-.1.1-.51.48-.61.52-.04.02-.05,0-.04-.04.07-.28.2-.57.26-.87.04-.19.17-1.18.04-1.28Z"/>
</svg>