<?xml version="1.0" encoding="UTF-8"?><svg id="Layer_1" xmlns="http://www.w3.org/2000/svg" viewBox="0 0 20 16"><defs><style>.cls-1{fill:#231f20;}.cls-2{fill:#fff;stroke-linecap:round;}.cls-2,.cls-3{stroke:#231f20;stroke-linejoin:round;stroke-width:1.25px;}.cls-3{fill:none;}</style></defs><path class="cls-1" d="M16,2.62c.41,0,.75.33.75.75v10.21c0,.41-.33.75-.75.75H4c-.41,0-.75-.33-.75-.75V3.36c0-.41.33-.75.75-.75h12.01M16,1.37H4c-1.1,0-2,.89-2,2v10.21c0,1.1.89,2,2,2h12.01c1.1,0,2-.89,2-2V3.36c0-1.1-.89-2-2-2h0Z"/><line class="cls-2" x1="6.66" y1=".68" x2="6.66" y2="3.62"/><line class="cls-2" x1="13.34" y1=".68" x2="13.34" y2="3.62"/><line class="cls-3" x1="2.63" y1="5.96" x2="17.37" y2="5.96"/><line class="cls-2" x1="10.77" y1="10.49" x2="14.5" y2="10.49"/><circle cx="7" cy="10.49" r="1.5"/></svg>