<?xml version="1.0" encoding="UTF-8"?><svg id="Layer_1" xmlns="http://www.w3.org/2000/svg" viewBox="0 0 20 16"><defs><style>.cls-1{fill:none;stroke:#000;stroke-linecap:round;stroke-miterlimit:10;stroke-width:1.25px;}</style></defs><path d="M4.02,1.25c1.52,0,2.75,1.23,2.75,2.75,0,1.31-1.85,3.73-2.75,4.47-.9-.74-2.75-3.16-2.75-4.47,0-1.52,1.23-2.75,2.75-2.75M4.02,0C1.82,0,.02,1.79.02,4s3.14,5.87,4,5.87,4-3.66,4-5.87S6.23,0,4.02,0h0Z"/><circle cx="4.02" cy="4" r="1.5"/><path d="M15.96,7.38c1.52,0,2.75,1.23,2.75,2.75,0,1.31-1.85,3.73-2.75,4.47-.9-.74-2.75-3.16-2.75-4.47,0-1.52,1.23-2.75,2.75-2.75M15.96,6.13c-2.21,0-4,1.79-4,4s3.14,5.87,4,5.87,4-3.66,4-5.87-1.79-4-4-4h0Z"/><circle cx="15.96" cy="10.13" r="1.5"/><path class="cls-1" d="M10.75,14.67h-4.03c-1.02,0-1.85-.83-1.85-1.85s.83-1.85,1.85-1.85h1.98c.82,0,1.48-.66,1.48-1.48s-.66-1.48-1.48-1.48h-.44"/></svg>