<?xml version="1.0" encoding="UTF-8"?>
<svg id="Layer_1" xmlns="http://www.w3.org/2000/svg" version="1.1" viewBox="0 0 20 16">
  <!-- Generator: Adobe Illustrator 29.6.1, SVG Export Plug-In . SVG Version: 2.1.1 Build 9)  -->
  <defs>
    <style>
      .st0 {
        fill: #231f20;
      }
    </style>
  </defs>
  <path class="st0" d="M13.55,5.26c-1.13,0-2.32-.38-3.39-1.45-2.44-2.44-6.78.07-6.82.1-.31.18-.71.08-.89-.23-.18-.31-.08-.71.23-.89.21-.13,5.25-3.06,8.4.1,2.38,2.39,5.38.05,5.51-.05.28-.22.69-.18.91.1.22.28.18.69-.1.91-.81.65-2.27,1.4-3.85,1.4Z"/>
  <path class="st0" d="M13.55,8.27c-1.13,0-2.32-.38-3.39-1.45-2.44-2.44-6.78.07-6.82.1-.31.18-.71.08-.89-.23-.18-.31-.08-.71.23-.89.21-.13,5.25-3.06,8.4.1,2.38,2.38,5.38.05,5.51-.05.28-.22.69-.18.91.1.22.28.18.69-.1.91-.81.65-2.27,1.4-3.85,1.4Z"/>
  <path class="st0" d="M13.55,11.31c-1.13,0-2.32-.38-3.39-1.45-2.44-2.44-6.78.07-6.82.1-.31.18-.71.08-.89-.23-.18-.31-.08-.71.23-.89.21-.13,5.25-3.06,8.4.1,2.38,2.39,5.38.05,5.51-.05.28-.22.69-.18.91.1.22.28.18.69-.1.91-.81.65-2.27,1.4-3.85,1.4Z"/>
  <path class="st0" d="M13.55,14.57c-1.13,0-2.32-.38-3.39-1.45-2.44-2.44-6.78.07-6.82.1-.31.18-.71.08-.89-.23-.18-.31-.08-.71.23-.89.21-.13,5.25-3.06,8.4.1,2.38,2.39,5.38.05,5.51-.05.28-.22.69-.18.91.1.22.28.18.69-.1.91-.81.65-2.27,1.4-3.85,1.4Z"/>
</svg>