<?xml version="1.0" encoding="UTF-8"?>
<svg id="Layer_1" xmlns="http://www.w3.org/2000/svg" version="1.1" viewBox="0 0 18 22">
  <!-- Generator: Adobe Illustrator 29.2.1, SVG Export Plug-In . SVG Version: 2.1.0 Build 116)  -->
  <defs>
    <style>
      .st0 {
        fill: none;
        stroke: #000;
        stroke-linecap: round;
        stroke-linejoin: round;
      }

      .st1 {
        fill: #fff;
      }
    </style>
  </defs>
  <g>
    <path class="st1" d="M9,21.3c-1.5,0-8.2-7.6-8.2-12.3S4.5.8,9,.8s8.2,3.7,8.2,8.2-6.7,12.3-8.2,12.3Z"/>
    <path d="M9,1.4c4.2,0,7.6,3.4,7.6,7.6s-5.9,11.2-7.6,11.7c-1.6-.4-7.6-7.5-7.6-11.7S4.8,1.3,9,1.3M9,.1C4.1.1.2,4,.2,8.9s6.7,12.9,8.8,12.9,8.8-8.1,8.8-12.9S13.9.1,9,.1h0Z"/>
  </g>
  <polyline class="st0" points="3.7 11.6 7 8.1 10.4 11.6"/>
  <polyline class="st0" points="8.5 9.5 11 6.9 14.3 10.1"/>
</svg>