<?xml version="1.0" encoding="UTF-8"?>
<svg id="Layer_1" xmlns="http://www.w3.org/2000/svg" version="1.1" viewBox="0 0 25 41">
  <!-- Generator: Adobe Illustrator 29.2.1, SVG Export Plug-In . SVG Version: 2.1.0 Build 116)  -->
  <defs>
    <style>
      .st0 {
        fill: none;
        stroke: #000;
        stroke-linecap: round;
        stroke-linejoin: round;
      }

      .st1 {
        fill: #fff;
      }
    </style>
  </defs>
  <g>
    <path class="st1" d="M12.5,40.4c-1.5,0-8.2-7.6-8.2-12.3s3.7-8.2,8.2-8.2,8.2,3.7,8.2,8.2-6.7,12.3-8.2,12.3Z"/>
    <path d="M12.5,20.5c4.2,0,7.6,3.4,7.6,7.6s-5.9,11.2-7.6,11.7c-1.6-.4-7.6-7.5-7.6-11.7s3.4-7.6,7.6-7.6M12.5,19.3c-4.9,0-8.8,3.9-8.8,8.8s6.7,12.9,8.8,12.9,8.8-8.1,8.8-12.9-3.9-8.8-8.8-8.8h0Z"/>
  </g>
  <polyline class="st0" points="7.2 30.7 10.5 27.3 13.9 30.7"/>
  <polyline class="st0" points="12 28.6 14.5 26 17.8 29.3"/>
</svg>