<?xml version="1.0" encoding="UTF-8"?>
<svg id="Layer_1" xmlns="http://www.w3.org/2000/svg" version="1.1" viewBox="0 0 25 41">
  <!-- Generator: Adobe Illustrator 29.2.1, SVG Export Plug-In . SVG Version: 2.1.0 Build 116)  -->
  <defs>
    <style>
      .st0 {
        fill: none;
        stroke: #000;
        stroke-linecap: round;
        stroke-miterlimit: 10;
      }

      .st1 {
        fill: #fff;
      }
    </style>
  </defs>
  <g>
    <path class="st1" d="M12.5,40.4c-1.5,0-8.2-7.6-8.2-12.3s3.7-8.2,8.2-8.2,8.2,3.7,8.2,8.2-6.7,12.3-8.2,12.3Z"/>
    <path d="M12.5,20.5c4.2,0,7.6,3.4,7.6,7.6s-5.9,11.2-7.6,11.7c-1.6-.4-7.6-7.5-7.6-11.7s3.4-7.6,7.6-7.6M12.5,19.3c-4.9,0-8.8,3.9-8.8,8.8s6.7,12.9,8.8,12.9,8.8-8.1,8.8-12.9-3.9-8.8-8.8-8.8h0Z"/>
  </g>
  <g>
    <line class="st0" x1="7" y1="28.3" x2="17.7" y2="28.3"/>
    <g>
      <line class="st0" x1="9.3" y1="28.3" x2="7.9" y2="29.8"/>
      <line class="st0" x1="9.3" y1="28.3" x2="7.9" y2="26.9"/>
    </g>
    <g>
      <line class="st0" x1="15.3" y1="28.3" x2="16.8" y2="26.9"/>
      <line class="st0" x1="15.3" y1="28.3" x2="16.8" y2="29.8"/>
    </g>
  </g>
  <g>
    <line class="st0" x1="9.6" y1="23.7" x2="15" y2="33"/>
    <g>
      <line class="st0" x1="10.8" y1="25.7" x2="8.9" y2="25.2"/>
      <line class="st0" x1="10.8" y1="25.7" x2="11.4" y2="23.8"/>
    </g>
    <g>
      <line class="st0" x1="13.8" y1="30.9" x2="15.8" y2="31.5"/>
      <line class="st0" x1="13.8" y1="30.9" x2="13.3" y2="32.9"/>
    </g>
  </g>
  <g>
    <line class="st0" x1="9.6" y1="33" x2="15" y2="23.7"/>
    <g>
      <line class="st0" x1="10.8" y1="30.9" x2="11.4" y2="32.9"/>
      <line class="st0" x1="10.8" y1="30.9" x2="8.9" y2="31.5"/>
    </g>
    <g>
      <line class="st0" x1="13.8" y1="25.7" x2="13.3" y2="23.8"/>
      <line class="st0" x1="13.8" y1="25.7" x2="15.8" y2="25.2"/>
    </g>
  </g>
</svg>