<?xml version="1.0" encoding="UTF-8"?>
<svg id="Layer_1" xmlns="http://www.w3.org/2000/svg" version="1.1" viewBox="0 0 25 41">
  <!-- Generator: Adobe Illustrator 29.2.1, SVG Export Plug-In . SVG Version: 2.1.0 Build 116)  -->
  <defs>
    <style>
      .st0 {
        fill: #fff;
      }
    </style>
  </defs>
  <path class="st0" d="M12.5,40.4c-.9-.2-4.7-4.5-4.7-7.2s2.1-4.7,4.7-4.7,4.7,2.1,4.7,4.7-3.9,7-4.7,7.2Z"/>
  <path d="M12.5,29.1c2.2,0,4.1,1.8,4.1,4.1s-2.9,5.7-4.1,6.5c-1.2-.8-4.1-4.4-4.1-6.5s1.8-4.1,4.1-4.1M12.5,27.8c-2.9,0-5.3,2.4-5.3,5.3s4.2,7.8,5.3,7.8,5.3-4.9,5.3-7.8-2.4-5.3-5.3-5.3h0Z"/>
  <circle cx="12.5" cy="33.2" r="2"/>
</svg>