<?xml version="1.0" encoding="UTF-8"?>
<svg id="Layer_1" xmlns="http://www.w3.org/2000/svg" version="1.1" viewBox="0 0 18 22">
  <!-- Generator: Adobe Illustrator 30.0.0, SVG Export Plug-In . SVG Version: 2.1.1 Build 123)  -->
  <defs>
    <style>
      .st0 {
        fill: #fff;
      }
    </style>
  </defs>
  <g>
    <path class="st0" d="M9,21.3c-1.5,0-8.2-7.6-8.2-12.3S4.5.8,9,.8s8.2,3.7,8.2,8.2-6.7,12.3-8.2,12.3Z"/>
    <path d="M9,1.4c4.2,0,7.6,3.4,7.6,7.6s-5.9,11.2-7.6,11.7c-1.6-.4-7.6-7.5-7.6-11.7S4.8,1.3,9,1.3M9,.1C4.1.1.2,4,.2,8.9s6.7,12.9,8.8,12.9,8.8-8.1,8.8-12.9S13.9.1,9,.1h0Z"/>
  </g>
  <rect class="st0" x="3.96" y="4.95" width="9.88" height="7.41"/>
  <rect x="8.92" y="7.38" width="2.48" height="2.48"/>
  <rect x="3.96" y="7.38" width="2.48" height="2.48"/>
  <rect x="11.4" y="4.9" width="2.48" height="2.48"/>
  <rect x="6.44" y="4.9" width="2.48" height="2.48"/>
  <rect x="11.4" y="9.87" width="2.48" height="2.48"/>
  <rect x="6.44" y="9.87" width="2.48" height="2.48"/>
</svg>