<?xml version="1.0" encoding="UTF-8"?>
<svg id="Layer_1" xmlns="http://www.w3.org/2000/svg" version="1.1" viewBox="0 0 20 16">
  <!-- Generator: Adobe Illustrator 29.6.1, SVG Export Plug-In . SVG Version: 2.1.1 Build 9)  -->
  <path d="M9.99,1.39c1.92,0,3.48,1.56,3.48,3.48s-1.56,3.48-3.48,3.48-3.48-1.56-3.48-3.48,1.56-3.48,3.48-3.48M9.99.09C7.35.09,5.21,2.23,5.21,4.87s2.14,4.78,4.78,4.78,4.78-2.14,4.78-4.78S12.64.09,9.99.09h0Z"/>
  <path d="M9.42,11.29l1.05.04c.14.1.15.74.21.95.02.08-.04.24.15.16.09-.04.63-.52.74-.63.86-.87,1.42-2.11,2.33-2.93.29-.07,1.44.85,1.71,1.09,1.11,1,2.03,2.42,2.44,3.86.27.95.72,2.08-.71,2.08l-7.31-.06-4.51-6.64c.08-.32.41-.41.68-.25.46.27,1.63,2.27,2.2,2.85.23.24.51.39.74.63l.27-1.15Z"/>
  <path d="M2.22,15.91c-.91-.15-.5-1.32-.34-1.91.33-1.26,1-2.34,1.81-3.34l3.63,5.26H2.22Z"/>
  <path d="M8.05,15.91l-.58-.1-3.47-5.16c-.14-.23.04-.37.21-.52l3.84,5.78Z"/>
  <rect x="9.52" y="9.91" width=".95" height=".95"/>
  <polygon points="9.73 15.91 9.8 15.86 5.33 9.17 4.99 9.4 9.35 15.91 9.73 15.91"/>
</svg>