<?xml version="1.0" encoding="UTF-8"?>
<svg id="Layer_1" xmlns="http://www.w3.org/2000/svg" version="1.1" viewBox="0 0 20 16">
  <!-- Generator: Adobe Illustrator 29.6.1, SVG Export Plug-In . SVG Version: 2.1.1 Build 9)  -->
  <defs>
    <style>
      .st0 {
        fill: #221f1f;
      }
    </style>
  </defs>
  <path d="M10.91,15.46c-1.79,0-3.54-.06-4.65-.18-1.15-.13-2.1-.66-2.66-1.49-.52-.77-.67-1.74-.4-2.74.38-1.44,1.41-1.78,1.95-1.92,0-.68,0-2.05,1.46-2.88,1.04-.6,1.72-.37,2.38-.15,0,0,.02,0,.02,0,.58-1.27,1.8-2.15,3.31-2.35,1.84-.24,3.58.57,4.45,2.06.19.33.3.76.39,1.13.03.11.07.27.1.37.07.03.16.06.25.1.26.1.56.21.78.37,1.47,1.07,2.11,2.74,1.66,4.37-.48,1.74-2.05,2.98-3.99,3.15-1.23.11-3.16.17-5.05.17ZM7.88,7.15c-.19,0-.37.06-.63.21-.75.43-.81,1.06-.8,1.77,0,.34,0,.63-.21.88-.19.22-.43.28-.67.34-.42.1-.9.22-1.11,1.02-.17.64-.09,1.22.22,1.67.35.51.97.84,1.74.93,2.14.24,7.13.21,9.44,0,1.39-.12,2.51-.99,2.85-2.2.31-1.11-.13-2.22-1.17-2.97-.08-.06-.31-.15-.47-.2-.34-.13-.62-.23-.81-.46h0c-.17-.21-.25-.52-.35-.91-.07-.28-.16-.62-.26-.8-.6-1.04-1.84-1.6-3.15-1.42-1.24.16-2.16.92-2.46,2.03l-.17.62-.62-.16c-.26-.06-.48-.14-.68-.21-.3-.1-.49-.17-.68-.17Z"/>
  <g>
    <path class="st0" d="M3.53,9.09c-.66-.66-1.02-1.53-1.02-2.46,0-1.92,1.56-3.48,3.48-3.48,1.23,0,2.37.66,3,1.71l-1.12.66c-.39-.66-1.11-1.07-1.88-1.07-1.2,0-2.18.98-2.18,2.18,0,.58.23,1.13.64,1.54l-.92.92Z"/>
    <path class="st0" d="M6,3.28c-.36,0-.65-.29-.65-.65v-1.44c0-.36.29-.65.65-.65s.65.29.65.65v1.44c0,.36-.29.65-.65.65Z"/>
    <path class="st0" d="M1.99,7.28H.56c-.36,0-.65-.29-.65-.65s.29-.65.65-.65h1.44c.36,0,.65.29.65.65s-.29.65-.65.65Z"/>
    <path class="st0" d="M3.17,4.45c-.17,0-.33-.06-.46-.19l-1.02-1.02c-.25-.25-.25-.67,0-.92.25-.25.67-.25.92,0l1.02,1.02c.25.25.25.67,0,.92-.13.13-.29.19-.46.19Z"/>
    <path class="st0" d="M8.82,4.45c-.17,0-.33-.06-.46-.19-.25-.25-.25-.67,0-.92l1.02-1.02c.25-.25.67-.25.92,0s.25.67,0,.92l-1.02,1.02c-.13.13-.29.19-.46.19Z"/>
  </g>
</svg>