<?xml version="1.0" encoding="UTF-8"?><svg id="Layer_1" xmlns="http://www.w3.org/2000/svg" viewBox="0 0 20 16"><defs><style>.cls-1{fill:#fff;}.cls-2{fill:none;stroke:#000;stroke-linecap:round;stroke-linejoin:round;stroke-width:1.25px;}</style></defs><ellipse class="cls-2" cx="10" cy="12.87" rx="8.28" ry="2.48"/><path class="cls-1" d="M10,12.71c-.85-.21-4.71-4.53-4.71-7.19S7.4.81,10,.81s4.71,2.11,4.71,4.71-3.86,6.98-4.71,7.19Z"/><path d="M10,1.44c2.25,0,4.08,1.83,4.08,4.08,0,2.05-2.91,5.73-4.08,6.49-1.17-.76-4.08-4.44-4.08-6.49,0-2.25,1.83-4.08,4.08-4.08M10,.19C7.05.19,4.67,2.57,4.67,5.52s4.18,7.82,5.33,7.82,5.33-4.87,5.33-7.82S12.95.19,10,.19h0Z"/><circle cx="10" cy="5.52" r="2"/></svg>