<?xml version="1.0" encoding="UTF-8"?>
<svg id="Layer_1" xmlns="http://www.w3.org/2000/svg" version="1.1" viewBox="0 0 20 16">
  <!-- Generator: Adobe Illustrator 29.6.1, SVG Export Plug-In . SVG Version: 2.1.1 Build 9)  -->
  <defs>
    <style>
      .st0 {
        fill: #221f1f;
      }
    </style>
  </defs>
  <path d="M14.38,12.55l-.11-1.29c1.39-.12,2.51-.99,2.85-2.2.31-1.11-.13-2.22-1.17-2.97-.08-.06-.31-.15-.47-.2-.34-.13-.63-.23-.81-.46-.17-.21-.25-.52-.35-.91-.07-.28-.16-.62-.26-.79-.6-1.04-1.84-1.59-3.15-1.42-1.24.16-2.16.92-2.46,2.03l-.17.62-.62-.16c-.26-.06-.48-.14-.68-.21-.58-.19-.78-.26-1.31.05-.75.43-.81,1.06-.8,1.77,0,.34,0,.63-.21.88-.18.22-.43.28-.67.33-.44.11-.9.22-1.11,1.02-.17.64-.09,1.21.22,1.67.35.51.97.85,1.74.93l-.15,1.29c-1.15-.13-2.1-.66-2.66-1.49-.52-.77-.67-1.74-.4-2.74.38-1.44,1.41-1.78,1.95-1.92,0-.68,0-2.05,1.46-2.88,1.04-.6,1.72-.37,2.38-.15,0,0,.02,0,.02,0,.58-1.27,1.8-2.15,3.31-2.35,1.84-.24,3.58.57,4.45,2.06.19.33.3.76.39,1.13.03.11.07.27.1.37.07.03.16.06.25.1.26.1.55.21.78.37,1.47,1.07,2.11,2.74,1.66,4.37-.48,1.74-2.05,2.98-3.99,3.15Z"/>
  <path class="st0" d="M4.9,15.04c-.11,0-.23-.03-.33-.09-.31-.19-.41-.58-.22-.89l2.27-3.78c.18-.31.58-.41.89-.22.31.19.41.58.22.89l-2.27,3.78c-.12.2-.34.32-.56.32Z"/>
  <path class="st0" d="M10.04,15.04c-.11,0-.23-.03-.33-.09-.31-.19-.41-.58-.22-.89l2.27-3.78c.18-.31.58-.41.89-.22.31.19.41.58.22.89l-2.27,3.78c-.12.2-.34.32-.56.32Z"/>
  <path class="st0" d="M7.47,15.04c-.11,0-.23-.03-.33-.09-.31-.19-.41-.58-.22-.89l1.49-2.49c.18-.31.58-.41.89-.22.31.19.41.58.22.89l-1.49,2.49c-.12.2-.34.32-.56.32Z"/>
  <path class="st0" d="M10,10.83c-.11,0-.23-.03-.33-.09-.31-.19-.41-.58-.22-.89l1.18-1.96c.18-.31.58-.41.89-.22.31.18.41.58.22.89l-1.18,1.97c-.12.2-.34.32-.56.32Z"/>
</svg>