<?xml version="1.0" encoding="UTF-8"?>
<svg id="Layer_1" xmlns="http://www.w3.org/2000/svg" version="1.1" viewBox="0 0 20 16">
  <!-- Generator: Adobe Illustrator 29.2.1, SVG Export Plug-In . SVG Version: 2.1.0 Build 116)  -->
  <defs>
    <style>
      .st0 {
        fill: none;
        stroke: #000;
        stroke-linecap: round;
        stroke-miterlimit: 10;
      }
    </style>
  </defs>
  <g>
    <g>
      <line class="st0" x1="6.1" y1="6.4" x2="13.9" y2="6.4"/>
      <g>
        <line class="st0" x1="7.8" y1="6.4" x2="6.8" y2="7.5"/>
        <line class="st0" x1="7.8" y1="6.4" x2="6.8" y2="5.5"/>
      </g>
      <g>
        <line class="st0" x1="12.1" y1="6.4" x2="13.2" y2="5.5"/>
        <line class="st0" x1="12.1" y1="6.4" x2="13.2" y2="7.5"/>
      </g>
    </g>
    <g>
      <line class="st0" x1="8" y1="3.2" x2="11.9" y2="9.9"/>
      <g>
        <line class="st0" x1="8.9" y1="4.6" x2="7.5" y2="4.2"/>
        <line class="st0" x1="8.9" y1="4.6" x2="9.3" y2="3.2"/>
      </g>
      <g>
        <line class="st0" x1="11" y1="8.4" x2="12.5" y2="8.8"/>
        <line class="st0" x1="11" y1="8.4" x2="10.7" y2="9.8"/>
      </g>
    </g>
    <g>
      <line class="st0" x1="8" y1="9.9" x2="11.9" y2="3.2"/>
      <g>
        <line class="st0" x1="8.9" y1="8.4" x2="9.3" y2="9.8"/>
        <line class="st0" x1="8.9" y1="8.4" x2="7.5" y2="8.8"/>
      </g>
      <g>
        <line class="st0" x1="11" y1="4.6" x2="10.7" y2="3.2"/>
        <line class="st0" x1="11" y1="4.6" x2="12.5" y2="4.2"/>
      </g>
    </g>
  </g>
  <path d="M10,1.1c2.9,0,5.2,2.3,5.2,5.2s-4,8.6-5.2,8.6-5.2-5.4-5.2-8.6S7.1,1.1,10,1.1M10,0C6.6,0,3.8,2.9,3.8,6.3s4,9.6,6.2,9.6,6.2-6.2,6.2-9.6S13.4,0,10,0h0Z"/>
</svg>