<?xml version="1.0" encoding="UTF-8"?>
<svg id="Layer_1" xmlns="http://www.w3.org/2000/svg" version="1.1" viewBox="0 0 20 16">
  <!-- Generator: Adobe Illustrator 29.6.1, SVG Export Plug-In . SVG Version: 2.1.1 Build 9)  -->
  <defs>
    <style>
      .st0 {
        fill: #231f20;
      }

      .st1 {
        fill: #fff;
      }
    </style>
  </defs>
  <path d="M14.38,12.69l-.11-1.29c1.39-.12,2.51-.99,2.85-2.2.31-1.1-.13-2.22-1.17-2.97-.08-.06-.31-.15-.47-.2-.34-.13-.63-.23-.81-.46-.17-.21-.25-.52-.35-.9-.07-.28-.16-.62-.26-.8-.6-1.04-1.83-1.6-3.15-1.42-1.24.16-2.16.92-2.46,2.03l-.17.62-.62-.15c-.26-.06-.48-.14-.68-.21-.58-.2-.78-.26-1.31.05-.75.43-.81,1.06-.8,1.77,0,.34,0,.63-.21.88-.18.22-.43.28-.67.33-.42.1-.9.22-1.11,1.02-.17.64-.09,1.21.22,1.67.35.51.97.85,1.74.93l-.15,1.29c-1.15-.13-2.1-.66-2.67-1.49-.52-.77-.67-1.74-.4-2.74.38-1.44,1.41-1.78,1.95-1.92,0-.68,0-2.05,1.46-2.88,1.04-.6,1.72-.37,2.37-.15,0,0,.02,0,.03,0,.58-1.27,1.8-2.15,3.31-2.35,1.84-.24,3.58.57,4.45,2.06.19.33.3.76.39,1.13.03.11.07.27.1.37.07.03.16.06.25.1.26.1.55.21.78.37,1.47,1.07,2.11,2.75,1.66,4.37-.48,1.74-2.05,2.98-3.99,3.15Z"/>
  <g>
    <g>
      <line class="st1" x1="8.67" y1="10.52" x2="14.04" y2="10.52"/>
      <path class="st0" d="M14.04,11.17h-5.38c-.36,0-.65-.29-.65-.65s.29-.65.65-.65h5.38c.36,0,.65.29.65.65s-.29.65-.65.65Z"/>
    </g>
    <g>
      <line class="st1" x1="10.01" y1="8.19" x2="12.7" y2="12.84"/>
      <path class="st0" d="M12.7,13.49c-.22,0-.44-.12-.56-.33l-2.69-4.65c-.18-.31-.07-.71.24-.89.31-.18.71-.07.89.24l2.69,4.65c.18.31.07.71-.24.89-.1.06-.21.09-.32.09Z"/>
    </g>
    <g>
      <line class="st1" x1="10.01" y1="12.84" x2="12.7" y2="8.19"/>
      <path class="st0" d="M10.01,13.49c-.11,0-.22-.03-.32-.09-.31-.18-.42-.58-.24-.89l2.69-4.65c.18-.31.58-.42.89-.24.31.18.42.58.24.89l-2.69,4.65c-.12.21-.34.33-.56.33Z"/>
    </g>
  </g>
  <g>
    <line class="st1" x1="6.18" y1="12.39" x2="8.03" y2="14.24"/>
    <path class="st0" d="M8.03,14.89c-.17,0-.33-.06-.46-.19l-1.85-1.85c-.25-.25-.25-.67,0-.92s.67-.25.92,0l1.85,1.85c.25.25.25.67,0,.92-.13.13-.29.19-.46.19Z"/>
  </g>
  <g>
    <line class="st1" x1="8.03" y1="12.39" x2="6.18" y2="14.24"/>
    <path class="st0" d="M6.18,14.89c-.17,0-.33-.06-.46-.19-.25-.25-.25-.67,0-.92l1.85-1.85c.25-.25.67-.25.92,0s.25.67,0,.92l-1.85,1.85c-.13.13-.29.19-.46.19Z"/>
  </g>
</svg>