<?xml version="1.0" encoding="UTF-8"?>
<svg id="Layer_1" xmlns="http://www.w3.org/2000/svg" version="1.1" viewBox="0 0 20 16">
  <!-- Generator: Adobe Illustrator 29.2.1, SVG Export Plug-In . SVG Version: 2.1.0 Build 116)  -->
  <defs>
    <style>
      .st0 {
        fill: none;
        stroke: #000;
        stroke-linecap: round;
        stroke-linejoin: round;
        stroke-width: 1.2px;
      }
    </style>
  </defs>
  <path d="M10,4c0,0,.2,0,.3.2l4.6,8c0,.1,0,.3,0,.3,0,0-.1.2-.3.2H5.4c-.2,0-.2,0-.3-.2,0,0,0-.2,0-.3l4.6-8c0-.1.2-.2.3-.2M10,2.8c-.5,0-1.1.3-1.4.8l-4.6,8c-.6,1.1.2,2.4,1.4,2.4h9.2c1.2,0,2-1.3,1.4-2.4l-4.6-8c-.3-.5-.8-.8-1.4-.8h0Z"/>
  <line class="st0" x1="10" y1="6.5" x2="10" y2="9"/>
  <circle cx="10" cy="10.8" r=".8"/>
</svg>