<?xml version="1.0" encoding="UTF-8"?>
<svg id="Layer_1" xmlns="http://www.w3.org/2000/svg" version="1.1" viewBox="0 0 20 16">
  <!-- Generator: Adobe Illustrator 29.6.1, SVG Export Plug-In . SVG Version: 2.1.1 Build 9)  -->
  <defs>
    <style>
      .st0 {
        fill: #231f20;
      }
    </style>
  </defs>
  <path class="st0" d="M15.82,15.19c-1.35,0-2.45-1.1-2.45-2.45,0-1.15.94-2.09,2.09-2.09.99,0,1.8.81,1.8,1.8,0,.36-.29.65-.65.65s-.65-.29-.65-.65c0-.28-.22-.5-.5-.5-.44,0-.79.35-.79.79,0,.63.51,1.15,1.15,1.15.88,0,1.6-.72,1.6-1.6,0-1.19-.97-2.16-2.16-2.16H6.47c-.36,0-.65-.29-.65-.65s.29-.65.65-.65h8.78c1.91,0,3.46,1.55,3.46,3.46,0,1.6-1.3,2.9-2.9,2.9Z"/>
  <path class="st0" d="M16.64,7.42h-5.38c-.36,0-.65-.29-.65-.65s.29-.65.65-.65h5.38c.59,0,1.07-.48,1.07-1.07,0-.4-.33-.73-.73-.73-.36,0-.65-.29-.65-.65s.29-.65.65-.65c1.12,0,2.03.91,2.03,2.03,0,1.31-1.06,2.37-2.37,2.37Z"/>
  <path d="M7.82,12.57c-1.79,0-3.54-.06-4.64-.18-1.15-.13-2.1-.66-2.66-1.49C0,10.12-.15,9.15.12,8.15c.38-1.44,1.41-1.78,1.95-1.92,0-.68,0-2.05,1.46-2.88,1.04-.6,1.72-.37,2.38-.15,0,0,.02,0,.02,0,.58-1.27,1.8-2.15,3.31-2.35,1.84-.24,3.58.57,4.45,2.06.19.33.3.76.39,1.13.03.11.07.27.1.37.07.03.16.06.25.1.26.1.55.21.78.37l-.76,1.05c-.08-.06-.32-.15-.47-.2-.34-.13-.63-.23-.81-.46-.17-.21-.25-.52-.35-.9-.07-.28-.16-.62-.26-.8-.6-1.04-1.82-1.6-3.15-1.42-1.24.16-2.16.92-2.46,2.03l-.17.62-.62-.16c-.26-.06-.48-.14-.68-.21-.58-.2-.78-.26-1.31.05-.75.43-.81,1.06-.8,1.78,0,.34,0,.63-.21.88-.18.22-.43.28-.67.34-.42.1-.9.22-1.11,1.02-.17.64-.09,1.22.22,1.67.35.51.97.84,1.74.93,2.14.24,7.13.21,9.44,0l.11,1.29c-1.23.11-3.16.17-5.05.17Z"/>
</svg>