<?xml version="1.0" encoding="UTF-8"?>
<svg id="Layer_1" xmlns="http://www.w3.org/2000/svg" version="1.1" viewBox="0 0 20 16">
  <!-- Generator: Adobe Illustrator 29.6.1, SVG Export Plug-In . SVG Version: 2.1.1 Build 9)  -->
  <defs>
    <style>
      .st0 {
        fill: #221f1f;
      }
    </style>
  </defs>
  <path class="st0" d="M10,12.38c-2.41,0-4.38-1.96-4.38-4.38s1.96-4.38,4.38-4.38,4.38,1.96,4.38,4.38-1.96,4.38-4.38,4.38ZM10,4.92c-1.7,0-3.08,1.38-3.08,3.08s1.38,3.08,3.08,3.08,3.08-1.38,3.08-3.08-1.38-3.08-3.08-3.08Z"/>
  <path class="st0" d="M10,3.39c-.36,0-.65-.29-.65-.65V.84c0-.36.29-.65.65-.65s.65.29.65.65v1.89c0,.36-.29.65-.65.65Z"/>
  <path class="st0" d="M10,15.81c-.36,0-.65-.29-.65-.65v-1.89c0-.36.29-.65.65-.65s.65.29.65.65v1.89c0,.36-.29.65-.65.65Z"/>
  <path class="st0" d="M17.16,8.65h-1.89c-.36,0-.65-.29-.65-.65s.29-.65.65-.65h1.89c.36,0,.65.29.65.65s-.29.65-.65.65Z"/>
  <path class="st0" d="M4.74,8.65h-1.89c-.36,0-.65-.29-.65-.65s.29-.65.65-.65h1.89c.36,0,.65.29.65.65s-.29.65-.65.65Z"/>
  <path class="st0" d="M15.06,13.71c-.17,0-.33-.06-.46-.19l-1.34-1.34c-.25-.25-.25-.67,0-.92.25-.25.67-.25.92,0l1.34,1.34c.25.25.25.67,0,.92-.13.13-.29.19-.46.19Z"/>
  <path class="st0" d="M6.28,4.93c-.17,0-.33-.06-.46-.19l-1.34-1.34c-.25-.25-.25-.67,0-.92s.67-.25.92,0l1.34,1.34c.25.25.25.67,0,.92-.13.13-.29.19-.46.19Z"/>
  <path class="st0" d="M13.72,4.93c-.17,0-.33-.06-.46-.19-.25-.25-.25-.67,0-.92l1.34-1.34c.25-.25.67-.25.92,0s.25.67,0,.92l-1.34,1.34c-.13.13-.29.19-.46.19Z"/>
  <path class="st0" d="M4.94,13.71c-.17,0-.33-.06-.46-.19-.25-.25-.25-.67,0-.92l1.34-1.34c.25-.25.67-.25.92,0,.25.25.25.67,0,.92l-1.34,1.34c-.13.13-.29.19-.46.19Z"/>
</svg>