<?xml version="1.0" encoding="UTF-8"?>
<svg id="Layer_1" xmlns="http://www.w3.org/2000/svg" version="1.1" viewBox="0 0 20 16">
  <!-- Generator: Adobe Illustrator 29.6.1, SVG Export Plug-In . SVG Version: 2.1.1 Build 9)  -->
  <g id="U9NI1h.tif">
    <g>
      <path d="M10.32,16h-.62c-2.9-.29-4.4-3.68-2.53-5.99.19-.23.42-.42.62-.63V2.03c.31-2.71,4.12-2.71,4.43,0v7.35c1.2.98,1.73,2.48,1.29,4.01-.41,1.4-1.74,2.48-3.19,2.6ZM9.78.96c-.48.07-.96.56-1.02,1.04-.03,2.6.05,5.21-.04,7.81-.07.22-.3.3-.46.45-1.49,1.36-1.19,3.8.71,4.58,2.8,1.14,5.11-2.45,2.79-4.58-.25-.23-.45-.22-.5-.63l-.02-7.68c-.15-.67-.78-1.1-1.46-.99Z"/>
      <path d="M10.48,10.8c1.17.38,1.52,1.9.57,2.73-1.22,1.06-3.04-.16-2.56-1.69.16-.51.56-.86,1.05-1.05v-6.41c.09-.52.84-.52.94,0v6.42Z"/>
    </g>
  </g>
</svg>