<?xml version="1.0" encoding="UTF-8"?>
<svg id="Layer_1" xmlns="http://www.w3.org/2000/svg" version="1.1" viewBox="0 0 20 16">
  <!-- Generator: Adobe Illustrator 29.6.1, SVG Export Plug-In . SVG Version: 2.1.1 Build 9)  -->
  <defs>
    <style>
      .st0 {
        fill: #231f20;
      }
    </style>
  </defs>
  <path d="M14.38,12.24l-.11-1.29c1.39-.12,2.51-.99,2.85-2.2.31-1.11-.13-2.22-1.17-2.97-.08-.06-.31-.15-.47-.2-.34-.13-.63-.23-.81-.46-.17-.21-.25-.52-.35-.9-.07-.28-.16-.62-.26-.8-.6-1.04-1.83-1.59-3.15-1.42-1.24.16-2.16.92-2.46,2.03l-.17.62-.62-.16c-.26-.06-.48-.14-.68-.21-.58-.2-.78-.26-1.31.05-.75.43-.81,1.06-.8,1.77,0,.34,0,.63-.21.88-.18.22-.43.28-.67.33-.42.1-.9.22-1.11,1.02-.17.64-.09,1.21.22,1.67.35.51.97.85,1.74.93l-.15,1.29c-1.15-.13-2.1-.66-2.66-1.49-.52-.77-.67-1.74-.4-2.74.38-1.44,1.41-1.78,1.95-1.92,0-.68,0-2.05,1.46-2.88,1.04-.6,1.72-.37,2.37-.15,0,0,.02,0,.02,0,.58-1.27,1.8-2.15,3.32-2.35,1.84-.24,3.58.57,4.45,2.06.19.33.3.76.39,1.13.03.11.07.27.1.37.07.03.16.06.25.1.26.1.55.21.78.37,1.47,1.07,2.11,2.74,1.66,4.37-.48,1.74-2.05,2.98-3.99,3.15Z"/>
  <path class="st0" d="M8.58,15.34c-.12,0-.24-.03-.35-.1-.3-.19-.39-.59-.2-.9l3.01-4.74h-4.52l3.31-4.72c.21-.29.61-.37.91-.16.29.21.37.61.16.91l-1.88,2.67h4.38l-4.28,6.74c-.12.19-.33.3-.55.3Z"/>
</svg>