<?xml version="1.0" encoding="UTF-8"?>
<svg id="Layer_1" xmlns="http://www.w3.org/2000/svg" version="1.1" viewBox="0 0 20 16">
  <!-- Generator: Adobe Illustrator 29.6.1, SVG Export Plug-In . SVG Version: 2.1.1 Build 9)  -->
  <path d="M10,1.3c3.69,0,6.7,3.01,6.7,6.7s-3.01,6.7-6.7,6.7-6.7-3.01-6.7-6.7S6.31,1.3,10,1.3M10,0C5.58,0,2,3.58,2,8s3.58,8,8,8,8-3.58,8-8S14.42,0,10,0h0Z"/>
  <path d="M10,8.65c-.36,0-.65-.29-.65-.65V3.03c0-.36.29-.65.65-.65s.65.29.65.65v4.97c0,.36-.29.65-.65.65Z"/>
  <path d="M13.16,10.79c-.12,0-.25-.04-.36-.11l-3.16-2.14c-.3-.2-.37-.61-.17-.9.2-.3.61-.37.9-.17l3.16,2.14c.3.2.37.61.17.9-.13.18-.33.29-.54.29Z"/>
</svg>