<?xml version="1.0" encoding="UTF-8"?>
<svg id="Layer_1" xmlns="http://www.w3.org/2000/svg" version="1.1" viewBox="0 0 20 16">
  <!-- Generator: Adobe Illustrator 29.6.1, SVG Export Plug-In . SVG Version: 2.1.1 Build 9)  -->
  <path d="M18,8c0,4.42-3.58,8-8,8S2,12.42,2,8,5.58,0,10,0s8,3.58,8,8ZM17.14,8c0-3.95-3.2-7.14-7.14-7.14s-7.14,3.2-7.14,7.14,3.2,7.14,7.14,7.14,7.14-3.2,7.14-7.14Z"/>
  <path d="M16.85,8c0,3.79-3.07,6.85-6.85,6.85s-6.85-3.07-6.85-6.85S6.21,1.15,10,1.15s6.85,3.07,6.85,6.85ZM9.86,1.67c-.74,0-1.48.15-2.16.44l1.75,4.26.1.06.31-.08V1.67ZM10.13,1.67v4.68l.35.08,1.81-4.32c-.67-.29-1.43-.43-2.16-.44ZM5.64,3.37l.04.16,3.21,3.21.35-.21-1.77-4.3s-.09-.01-.14,0c-.13.03-.65.36-.79.45-.32.21-.59.47-.9.69ZM12.55,2.22l-1.81,4.29.34.24,3.33-3.32c-.55-.49-1.15-.97-1.85-1.21ZM5.41,3.6c-.04.17-.21.26-.32.39-.15.18-.96,1.35-.85,1.49l4.3,1.77.21-.35-3.33-3.3ZM14.56,3.6l-3.31,3.3.21.35,4.3-1.77c.07-.1-.3-.7-.37-.82-.24-.38-.53-.72-.82-1.06ZM8.44,7.45l-4.33-1.75c-.28.68-.42,1.43-.44,2.16h4.73s.05-.41.05-.41ZM11.72,7.86c1.51-.09,3.1.07,4.61,0,0-.74-.15-1.48-.44-2.16l-4.23,1.74-.09.08.08.39s.06-.05.07-.05ZM10.78,8c0-.43-.35-.78-.78-.78s-.78.35-.78.78.35.78.78.78.78-.35.78-.78ZM4.08,10.3l4.29-1.75.06-.07-.06-.3-4.71-.04c0,.74.18,1.46.42,2.16ZM16.33,8.14h-4.65s-.11.35-.11.35l4.34,1.81c.24-.69.42-1.42.41-2.16ZM8.51,8.75l-4.27,1.78c-.05.07.27.63.33.73.13.22.66.99.85,1.09.21.11,2.92-2.98,3.33-3.24l-.23-.36ZM14.63,12.36c.21-.3.46-.56.67-.87.11-.16.43-.67.47-.82.01-.05.04-.09,0-.14l-4.3-1.77-.21.35,3.21,3.22.16.04ZM8.92,9.25l-3.28,3.28c-.04.21,1.49,1.19,1.77,1.25l1.83-4.26-.33-.27ZM11.08,9.25l-.34.24,1.81,4.29c.7-.24,1.3-.73,1.85-1.21l-3.33-3.32ZM9.86,14.34v-4.66c-.08-.07-.34-.16-.41-.04l-1.75,4.26c.68.28,1.43.42,2.16.44ZM10.13,9.68v4.66c.73-.02,1.48-.15,2.16-.44l-1.75-4.33-.41.11Z"/>
</svg>